<svg width="45" height="44" viewBox="0 0 45 44" fill="none" xmlns="http://www.w3.org/2000/svg">
<g clip-path="url(#clip0_1546_6430)">
<path d="M3.25 15.95C3.25 11.3296 3.25 9.01935 4.1492 7.25458C4.94015 5.70224 6.20224 4.44015 7.75458 3.6492C9.51935 2.75 11.8296 2.75 16.45 2.75H28.55C33.1704 2.75 35.4807 2.75 37.2454 3.6492C38.7978 4.44015 40.0598 5.70224 40.8508 7.25458C41.75 9.01935 41.75 11.3296 41.75 15.95V28.05C41.75 32.6704 41.75 34.9807 40.8508 36.7454C40.0598 38.2978 38.7978 39.5598 37.2454 40.3508C35.4807 41.25 33.1704 41.25 28.55 41.25H16.45C11.8296 41.25 9.51935 41.25 7.75458 40.3508C6.20224 39.5598 4.94015 38.2978 4.1492 36.7454C3.25 34.9807 3.25 32.6704 3.25 28.05V15.95Z" fill="url(#paint0_linear_1546_6430)"/>
<path d="M33.8784 13.7867C31.797 12.0267 29.2993 11.1467 26.6628 11L26.2466 11.44C28.6055 12.0267 30.6869 13.2 32.6296 14.8133C30.2706 13.4933 27.6342 12.6133 24.8589 12.32C24.0264 12.1733 23.3326 12.1733 22.5 12.1733C21.6674 12.1733 20.9736 12.1733 20.1411 12.32C17.3658 12.6133 14.7294 13.4933 12.3704 14.8133C14.3131 13.2 16.3945 12.0267 18.7534 11.44L18.3372 11C15.7007 11.1467 13.203 12.0267 11.1216 13.7867C8.76261 18.48 7.51376 23.76 7.375 29.1867C9.45642 31.5333 12.3704 33 15.4232 33C15.4232 33 16.3945 31.8267 17.0883 30.8C15.2844 30.36 13.6193 29.3333 12.5092 27.72C13.4805 28.3067 14.4518 28.8933 15.4232 29.3333C16.672 29.92 17.9209 30.2133 19.1697 30.5067C20.2798 30.6533 21.3899 30.8 22.5 30.8C23.6101 30.8 24.7202 30.6533 25.8303 30.5067C27.0791 30.2133 28.328 29.92 29.5768 29.3333C30.5482 28.8933 31.5195 28.3067 32.4908 27.72C31.3807 29.3333 29.7156 30.36 27.9117 30.8C28.6055 31.8267 29.5768 33 29.5768 33C32.6296 33 35.5436 31.5333 37.625 29.1867C37.4862 23.76 36.2374 18.48 33.8784 13.7867ZM17.9209 26.5467C16.5333 26.5467 15.2844 25.2267 15.2844 23.6133C15.2844 22 16.5333 20.68 17.9209 20.68C19.3085 20.68 20.5573 22 20.5573 23.6133C20.5573 25.2267 19.3085 26.5467 17.9209 26.5467ZM27.0791 26.5467C25.6915 26.5467 24.4427 25.2267 24.4427 23.6133C24.4427 22 25.6915 20.68 27.0791 20.68C28.4667 20.68 29.7156 22 29.7156 23.6133C29.7156 25.2267 28.4667 26.5467 27.0791 26.5467Z" fill="white"/>
</g>
<defs>
<linearGradient id="paint0_linear_1546_6430" x1="22.5" y1="2.75" x2="22.5" y2="41.25" gradientUnits="userSpaceOnUse">
<stop stop-color="#687EC9"/>
<stop offset="1" stop-color="#5971C3"/>
</linearGradient>
<clipPath id="clip0_1546_6430">
<rect width="44" height="44" fill="white" transform="translate(0.5)"/>
</clipPath>
</defs>
</svg>
