<svg width="65" height="64" viewBox="0 0 65 64" fill="none" xmlns="http://www.w3.org/2000/svg">
<g clip-path="url(#clip0_2884_192578)">
<path d="M62.8513 14.603L48.7929 0.544734C48.0946 -0.181641 46.8394 -0.181516 46.1413 0.544734L32.083 14.603C31.5468 15.1392 31.3864 15.9457 31.6765 16.6464C31.9668 17.347 32.6505 17.8039 33.4088 17.8039H39.5671V62.1205C39.5671 63.156 40.4066 63.9955 41.4421 63.9955H53.4921C54.5276 63.9955 55.3671 63.156 55.3671 62.1205V17.8039H61.5255C62.2839 17.8039 62.9676 17.347 63.2578 16.6464C63.5479 15.9457 63.3875 15.1394 62.8513 14.603Z" fill="white"/>
<path d="M33.4089 26.1039H21.3589C20.3234 26.1039 19.4839 26.9434 19.4839 27.9789V62.1205C19.4839 63.156 20.3234 63.9955 21.3589 63.9955H33.4089C34.4444 63.9955 35.2839 63.156 35.2839 62.1205V27.9789C35.2839 26.9434 34.4444 26.1039 33.4089 26.1039Z" fill="white"/>
<path d="M13.3255 42.1705H1.27551C0.240013 42.1705 -0.599487 43.01 -0.599487 44.0455V62.1205C-0.599487 63.156 0.240013 63.9955 1.27551 63.9955H13.3255C14.361 63.9955 15.2005 63.156 15.2005 62.1205V44.0455C15.2005 43.01 14.361 42.1705 13.3255 42.1705Z" fill="white"/>
</g>
<defs>
<clipPath id="clip0_2884_192578">
<rect width="64" height="64" fill="white" transform="translate(0.200012)"/>
</clipPath>
</defs>
</svg>
