<svg width="35" height="36" viewBox="0 0 35 36" fill="none" xmlns="http://www.w3.org/2000/svg">
<g clip-path="url(#clip0_2930_117426)" filter="url(#filter0_d_2930_117426)">
<path fill-rule="evenodd" clip-rule="evenodd" d="M16.5833 5.43618C16.5549 5.38272 16.526 5.32919 16.4965 5.27562C15.4396 3.35401 13.4753 1 10.2083 1C8.8933 1 7.63213 1.52239 6.70226 2.45226C5.7724 3.38213 5.25 4.6433 5.25 5.95833C5.25 6.70335 5.41767 7.43108 5.73212 8.09107C5.4583 8.09708 5.20519 8.10773 4.97372 8.12664C4.41364 8.1724 3.85658 8.27344 3.32055 8.54656C2.52086 8.95402 1.87069 9.60419 1.46323 10.4039C1.1901 10.9399 1.08907 11.497 1.04331 12.057C0.99996 12.5877 0.999979 13.2319 1 13.9786V16.8667C1 17.2634 1 17.4617 1.0772 17.6132C1.14512 17.7465 1.25348 17.8549 1.38676 17.9228C1.53828 18 1.73663 18 2.13334 18H15.1667V12.05C15.1667 11.6533 15.1667 11.4549 15.2439 11.3034C15.3118 11.1701 15.4201 11.0618 15.5534 10.9939C15.7049 10.9167 15.9033 10.9167 16.3 10.9167H16.8667C17.2634 10.9167 17.4617 10.9167 17.6132 10.9939C17.7465 11.0618 17.8549 11.1701 17.9228 11.3034C18 11.4549 18 11.6533 18 12.05V18H31.0333C31.43 18 31.6284 18 31.7799 17.9228C31.9132 17.8549 32.0216 17.7465 32.0895 17.6132C32.1667 17.4617 32.1667 17.2634 32.1667 16.8667V13.9787C32.1667 13.2319 32.1667 12.5877 32.1234 12.0571C32.0776 11.497 31.9766 10.9399 31.7035 10.4039C31.296 9.60419 30.6458 8.95402 29.8461 8.54656C29.3101 8.27344 28.753 8.17241 28.193 8.12665C27.9615 8.10773 27.7084 8.09708 27.4346 8.09107C27.749 7.43108 27.9167 6.70335 27.9167 5.95833C27.9167 4.6433 27.3943 3.38213 26.4644 2.45226C25.5345 1.52239 24.2734 1 22.9583 1C19.6914 1 17.727 3.35401 16.6702 5.27562C16.6407 5.32919 16.6118 5.38272 16.5833 5.43618ZM8.70573 4.45573C9.10425 4.05722 9.64475 3.83333 10.2083 3.83333C11.8997 3.83333 13.1229 5.02099 14.0139 6.64105C14.2847 7.13334 14.5036 7.63087 14.6765 8.08333H10.2083C9.64475 8.08333 9.10425 7.85945 8.70573 7.46094C8.30722 7.06242 8.08333 6.52192 8.08333 5.95833C8.08333 5.39475 8.30722 4.85425 8.70573 4.45573ZM22.9583 8.08333H18.4902C18.6631 7.63087 18.882 7.13334 19.1528 6.64105C20.0438 5.02099 21.267 3.83333 22.9583 3.83333C23.5219 3.83333 24.0624 4.05722 24.4609 4.45573C24.8595 4.85425 25.0833 5.39475 25.0833 5.95833C25.0833 6.52192 24.8595 7.06242 24.4609 7.46094C24.0624 7.85945 23.5219 8.08333 22.9583 8.08333Z" fill="#00E8FC"/>
<path d="M2.13333 20.8333C1.73663 20.8333 1.53828 20.8333 1.38676 20.9105C1.25348 20.9784 1.14512 21.0868 1.0772 21.2201C1 21.3716 1 21.57 1 21.9667V26.2713C0.999979 27.018 0.99996 27.6624 1.04331 28.193C1.08907 28.753 1.1901 29.3101 1.46323 29.8461C1.87069 30.6458 2.52086 31.296 3.32055 31.7034C3.85658 31.9766 4.41364 32.0776 4.97372 32.1234C5.50435 32.1667 6.14859 32.1667 6.89537 32.1667L26.2713 32.1667C27.0181 32.1667 27.6623 32.1667 28.193 32.1234C28.753 32.0776 29.3101 31.9766 29.8461 31.7034C30.6458 31.296 31.296 30.6458 31.7035 29.8461C31.9766 29.3101 32.0776 28.753 32.1234 28.193C32.1667 27.6623 32.1667 27.0181 32.1667 26.2713V21.9667C32.1667 21.57 32.1667 21.3716 32.0895 21.2201C32.0216 21.0868 31.9132 20.9784 31.7799 20.9105C31.6284 20.8333 31.43 20.8333 31.0333 20.8333H18V28.2C18 28.5967 18 28.7951 17.9228 28.9466C17.8549 29.0799 17.7465 29.1882 17.6132 29.2561C17.4617 29.3333 17.2634 29.3333 16.8667 29.3333H16.3C15.9033 29.3333 15.7049 29.3333 15.5534 29.2561C15.4201 29.1882 15.3118 29.0799 15.2439 28.9466C15.1667 28.7951 15.1667 28.5967 15.1667 28.2V20.8333H2.13333Z" fill="#00E8FC"/>
</g>
<defs>
<filter id="filter0_d_2930_117426" x="0" y="0" width="35" height="36" filterUnits="userSpaceOnUse" color-interpolation-filters="sRGB">
<feFlood flood-opacity="0" result="BackgroundImageFix"/>
<feColorMatrix in="SourceAlpha" type="matrix" values="0 0 0 0 0 0 0 0 0 0 0 0 0 0 0 0 0 0 127 0" result="hardAlpha"/>
<feOffset dx="1" dy="2"/>
<feColorMatrix type="matrix" values="0 0 0 0 0.0627451 0 0 0 0 0.0627451 0 0 0 0 0.0627451 0 0 0 1 0"/>
<feBlend mode="normal" in2="BackgroundImageFix" result="effect1_dropShadow_2930_117426"/>
<feBlend mode="normal" in="SourceGraphic" in2="effect1_dropShadow_2930_117426" result="shape"/>
</filter>
<clipPath id="clip0_2930_117426">
<rect width="34" height="34" fill="white"/>
</clipPath>
</defs>
</svg>
