<svg width="28" height="28" viewBox="0 0 28 28" fill="none" xmlns="http://www.w3.org/2000/svg">
<g filter="url(#filter0_d_2930_117432)">
<path d="M4.67439 23.3933C3.893 23.0642 3.27721 22.5133 2.88599 21.7997C2.32723 20.7698 2.29153 19.5201 2.7808 18.2742C3.26072 17.053 4.18888 15.9806 5.3978 15.255C6.70778 14.4634 8.17128 14.1823 9.47108 14.4611L9.46741 6.4225L9.47381 5.04757C9.47751 4.60898 9.63935 4.19697 9.93596 3.88746C10.2326 3.57794 10.6218 3.41034 11.0401 3.40931L25.0344 3.4727C25.229 3.47465 25.4265 3.51208 25.609 3.58893C26.2032 3.83921 26.5879 4.44137 26.5917 5.11749L26.5762 17.5095C26.9029 19.4649 25.7082 21.6827 23.6731 22.912C22.0843 23.8663 20.2736 24.0754 18.8278 23.4665C18.0464 23.1374 17.4306 22.5865 17.0394 21.873C16.4806 20.8431 16.4449 19.5933 16.9342 18.3475C17.4141 17.1262 18.3422 16.0538 19.5512 15.3282C20.8658 14.5386 22.3247 14.2556 23.6245 14.5343L23.6509 7.64592C23.6527 7.298 23.4543 6.9915 23.1501 6.86341C22.846 6.73532 22.9602 6.80627 22.8582 6.80332L13.262 6.76307C13.0495 6.76506 12.8502 6.84689 12.6977 7.00559C12.5452 7.16429 12.4601 7.37424 12.462 7.59797L12.4218 17.4531C12.7486 19.4085 11.5539 21.6262 9.52063 22.8506C7.93181 23.8049 6.12114 24.014 4.67533 23.4051L4.67439 23.3933Z" fill="#00F0B5"/>
<path d="M25.4958 3.87282C25.959 4.06791 26.2865 4.54885 26.2875 5.10375L26.272 17.5244C26.5838 19.3191 25.5089 21.4216 23.5233 22.6203C21.9691 23.5548 20.2464 23.7039 18.941 23.1541C17.6355 22.6042 17.6692 22.3726 17.306 21.6995C16.2522 19.758 17.3242 17.0198 19.7093 15.5835C21.1232 14.7328 22.6812 14.5315 23.9352 14.9167L23.9662 7.63013C23.968 7.1393 23.6816 6.72144 23.2746 6.54999C22.8675 6.37854 23.0125 6.46822 22.8722 6.46626L13.2759 6.426C12.6696 6.42213 12.1746 6.93963 12.1709 7.57831L12.1308 17.462C12.4426 19.2567 11.3677 21.3592 9.3821 22.5579C7.82791 23.4924 6.10519 23.6415 4.79974 23.0917C3.4943 22.5418 3.52796 22.3102 3.16482 21.6371C2.11095 19.6956 3.18303 16.9574 5.56813 15.5211C6.98197 14.6704 8.53999 14.4691 9.79395 14.8543L9.79211 6.41065L9.79852 5.03572C9.79937 4.3044 10.3654 3.71396 11.0598 3.71486L25.0541 3.77825C25.2169 3.77823 25.3732 3.80975 25.5182 3.87084M25.7184 3.28635C25.5032 3.1957 25.2711 3.14941 25.0381 3.14845L11.0438 3.08506C10.546 3.08117 10.0781 3.28427 9.72725 3.65095C9.37638 4.01764 9.17805 4.51145 9.17436 5.0358L9.16796 6.41072L9.17159 14.0778C7.89613 13.9064 6.50936 14.2141 5.25085 14.9702C3.98391 15.7342 3.00803 16.8609 2.5038 18.1462C1.97898 19.4857 2.0203 20.8349 2.62679 21.9535C3.04796 22.7311 3.7171 23.3273 4.564 23.684C6.09403 24.3284 8.00389 24.1153 9.67225 23.1088C11.8113 21.8204 13.0556 19.4863 12.726 17.4097L12.7661 7.58317C12.7642 7.44518 12.8194 7.31409 12.9111 7.21552C13.0028 7.11695 13.1319 7.06272 13.261 7.06566L22.8573 7.10592C22.9228 7.10493 22.9827 7.11872 23.0388 7.14237C23.2306 7.22317 23.3542 7.41239 23.3486 7.62725L23.324 14.1392C22.0486 13.9678 20.6571 14.2735 19.4033 15.0316C18.1363 15.7956 17.1605 16.9223 16.6562 18.2076C16.1314 19.5471 16.1727 20.8964 16.7792 22.0149C17.2004 22.7925 17.8695 23.3888 18.7164 23.7454C20.2465 24.3898 22.1563 24.1767 23.8247 23.1702C25.9637 21.8818 27.208 19.5477 26.8803 17.4662L26.8958 5.10269C26.8976 4.29745 26.438 3.57801 25.7268 3.27847L25.7184 3.28635Z" fill="#101010"/>
<path opacity="0.3" d="M26.3311 17.4977L26.3466 5.02774C26.3474 4.29352 25.7856 3.69987 25.094 3.69402L11.1165 3.63037C10.423 3.62947 9.85762 4.22225 9.85676 4.95648L9.85037 6.33686L9.8522 14.8141C8.59975 14.4273 7.0436 14.6294 5.63145 15.4835C3.25576 16.9225 2.18028 19.6696 3.23102 21.6238C4.28363 23.573 7.06516 23.9873 9.44552 22.5502C11.4334 21.3487 12.507 19.2379 12.1909 17.4341L12.231 7.51114C12.2347 6.86993 12.7272 6.35532 13.3347 6.35426L22.9194 6.39468C23.525 6.39856 24.0111 6.91998 24.0121 7.56317L23.9811 14.8787C22.7287 14.4919 21.1725 14.694 19.7604 15.5481C17.3847 16.9872 16.3092 19.7342 17.3599 21.6884C18.4125 23.6376 21.1941 24.0519 23.5744 22.6148C25.5623 21.4133 26.636 19.3025 26.3199 17.4987L26.3311 17.4977Z" fill="#101010"/>
<path d="M2.59501 23.3766C1.81373 23.0479 1.19813 22.4972 0.807143 21.7839C0.248732 20.7542 0.21346 19.5045 0.703146 18.2584C1.18347 17.037 2.11198 15.9641 3.32115 15.2381C4.63139 14.4459 6.09497 14.1643 7.39468 14.4425L7.39371 6.40387L7.40057 5.02894C7.40359 4.1212 8.10557 3.38753 8.96553 3.39496L22.9598 3.45259C23.1544 3.45446 23.3518 3.49181 23.5343 3.56859C24.1284 3.81862 24.5129 4.42062 24.5165 5.09675L24.4968 17.4888C24.8229 19.4441 23.6275 21.6624 21.5919 22.8925C20.0028 23.8474 18.192 24.0573 16.7464 23.449C15.9652 23.1202 15.3496 22.5696 14.9586 21.8562C13.8212 19.7653 14.9532 16.8286 17.4744 15.3055C18.7894 14.5153 20.2483 14.2317 21.548 14.5099L21.5767 7.62147C21.5786 7.27354 21.3803 6.96713 21.0762 6.83916C20.7721 6.71119 20.8863 6.78209 20.7843 6.77919L11.1881 6.74288C10.7493 6.74114 10.3898 7.11587 10.3879 7.57812L10.3444 17.4332C10.6706 19.3885 9.47509 21.6068 7.44141 22.832C5.85228 23.7869 4.04155 23.9968 2.59594 23.3885L2.59501 23.3766Z" fill="#00F0B5"/>
<path d="M23.421 3.85249C23.8842 4.0474 24.2116 4.5282 24.2124 5.0831L24.1927 17.5038C24.5039 19.2984 23.4282 21.4013 21.4423 22.6008C19.8878 23.536 18.165 23.6857 16.8597 23.1365C15.5545 22.5872 15.5882 22.3555 15.2253 21.6826C14.1721 19.7415 15.2451 17.0029 17.6307 15.5656C19.0448 14.7143 20.6029 14.5124 21.8567 14.8971L21.8902 7.61045C21.8922 7.11961 21.6059 6.70187 21.1989 6.53059C20.7919 6.35931 20.9369 6.44892 20.7965 6.44702L11.2004 6.41071C10.594 6.40709 10.0989 6.9248 10.095 7.56348L10.0515 17.4472C10.3627 19.2418 9.28707 21.3447 7.30113 22.5443C5.74662 23.4794 4.02386 23.6292 2.71861 23.0799C1.41335 22.5306 1.44709 22.299 1.08417 21.626C0.0309537 19.6849 1.10396 16.9463 3.48953 15.509C4.90365 14.6577 6.46173 14.4558 7.71556 14.8405L7.71656 6.39679L7.72342 5.02186C7.72452 4.29054 8.29079 3.69986 8.98512 3.70048L22.9793 3.75811C23.1422 3.75802 23.2984 3.78948 23.4435 3.85051M23.6438 3.26594C23.4286 3.17537 23.1966 3.12917 22.9589 3.12634L8.96468 3.06871C7.94003 3.0663 7.10233 3.94295 7.09459 5.02022L7.08773 6.39515L7.08878 14.0622C5.81338 13.8914 4.42652 14.1996 3.16776 14.9563C1.90057 15.7208 0.924316 16.8479 0.419649 18.1334C-0.105617 19.4731 -0.0647534 20.8224 0.541361 21.9407C0.962273 22.7181 1.6312 23.3141 2.47798 23.6704C4.00779 24.3142 5.91772 24.1003 7.58641 23.0931C9.72584 21.8038 10.9709 19.4692 10.642 17.3927L10.6854 7.56612C10.6836 7.42813 10.7388 7.29702 10.8306 7.19841C10.9223 7.0998 11.0514 7.04553 11.1806 7.04841L20.7767 7.08472C20.8423 7.0837 20.9021 7.09747 20.9583 7.12109C21.1501 7.20181 21.2736 7.39098 21.2726 7.60782L21.2458 14.1198C19.9704 13.9489 18.5789 14.2552 17.3248 15.0138C14.6585 16.6188 13.4787 19.7527 14.6984 21.9982C15.1193 22.7757 15.7882 23.3716 16.635 23.7279C18.1648 24.3717 20.0748 24.1578 21.7434 23.1506C23.8829 21.8613 25.128 19.5267 24.8009 17.4453L24.8206 5.08179C24.8227 4.27655 24.3634 3.55729 23.6523 3.25805L23.6438 3.26594Z" fill="#101010"/>
<path opacity="0.5" d="M1.61758 22.1408C0.564638 20.1922 1.63578 17.4442 4.01878 16.0026C5.43138 15.1488 6.98803 14.9468 8.24089 15.3334L8.23905 6.85914L8.24545 5.47923C8.24631 4.74526 8.81188 4.15268 9.5056 4.15358L23.4876 4.21721C23.6774 4.21718 23.8597 4.26563 24.0196 4.34475C23.8036 3.95504 23.4034 3.69394 22.9425 3.694L8.96048 3.63037C8.26676 3.62947 7.70118 4.22205 7.70033 4.95602L7.69393 6.33593L7.69577 14.8102C6.44291 14.4236 4.88626 14.6256 3.47366 15.4794C1.09721 16.918 0.0213845 19.6641 1.07246 21.6176C1.29689 22.0281 1.59517 22.3723 1.95328 22.6442C1.82798 22.488 1.71577 22.3257 1.61758 22.1408Z" fill="white"/>
<path opacity="0.5" d="M15.766 22.2112C14.7121 20.2697 15.7842 17.5315 18.1693 16.0952C19.5832 15.2445 21.1412 15.0432 22.3951 15.4284L22.4262 8.14184C22.4289 7.66284 22.1519 7.24891 21.7533 7.06958C21.8366 7.23614 21.8806 7.42044 21.8806 7.62052L21.8495 14.9071C20.5956 14.5219 19.0376 14.7231 17.6237 15.5739C15.2452 17.0072 14.1684 19.7434 15.2204 21.6899C15.445 22.0989 15.7436 22.4418 16.102 22.7128C15.9766 22.5571 15.8643 22.3955 15.766 22.2112Z" fill="white"/>
<g opacity="0.4">
<path d="M7.89591 6.84992L9.93294 3.70118L9.8647 3.63423L9.0206 3.63037C8.32995 3.62947 7.76688 4.22232 7.76603 4.95664L7.75966 6.33719L7.75974 6.71635L7.89591 6.84992Z" fill="#94FFE5"/>
<path d="M3.99867 23.3877C3.348 23.3253 2.74516 23.1245 2.23926 22.7925L10.1061 13.5749L10.0954 16.2442L3.99867 23.3877Z" fill="#94FFE5"/>
<path d="M24.1955 17.7443C24.3787 19.4916 23.3184 21.4692 21.4273 22.6171C20.5254 23.1639 19.5657 23.4427 18.6649 23.4709L24.1955 17.7443Z" fill="#94FFE5"/>
<path d="M24.1851 4.93372C24.1871 4.96483 24.1881 4.99624 24.1881 5.02791L24.1828 9.2654L21.8438 12.1543L21.8632 7.56364C21.8631 7.49859 21.8581 7.43479 21.8485 7.37264L23.9834 4.73584L24.1851 4.93372Z" fill="#94FFE5"/>
<path d="M20.783 3.68416L20.8004 3.70119L18.5095 6.38541L16.2503 6.37585L18.5562 3.67398L20.783 3.68416Z" fill="#94FFE5"/>
<path d="M19.7358 14.758L14.9008 20.7296C14.5562 18.9137 15.6307 16.7651 17.6289 15.5496C18.3143 15.1332 19.0338 14.8718 19.7358 14.758Z" fill="#94FFE5"/>
</g>
<g opacity="0.2">
<path d="M10.2678 17.4089C10.2678 17.4089 5.81068 25.0035 1.43011 22.3754C1.43011 22.3754 4.21991 25.1624 7.73436 22.7384C7.73436 22.7384 10.8035 21.0014 10.2678 17.4089Z" fill="#101010"/>
<path d="M24.4753 16.3674C24.4753 16.3674 21.5324 25.5772 15.2858 22.2604C15.2858 22.2604 19.3689 25.7864 22.5988 22.1679C22.5988 22.1679 25.2495 19.5744 24.4753 16.3674Z" fill="#101010"/>
</g>
</g>
<defs>
<filter id="filter0_d_2930_117432" x="0" y="0" width="29" height="30" filterUnits="userSpaceOnUse" color-interpolation-filters="sRGB">
<feFlood flood-opacity="0" result="BackgroundImageFix"/>
<feColorMatrix in="SourceAlpha" type="matrix" values="0 0 0 0 0 0 0 0 0 0 0 0 0 0 0 0 0 0 127 0" result="hardAlpha"/>
<feOffset dx="1" dy="2"/>
<feColorMatrix type="matrix" values="0 0 0 0 0.0627451 0 0 0 0 0.0627451 0 0 0 0 0.0627451 0 0 0 1 0"/>
<feBlend mode="normal" in2="BackgroundImageFix" result="effect1_dropShadow_2930_117432"/>
<feBlend mode="normal" in="SourceGraphic" in2="effect1_dropShadow_2930_117432" result="shape"/>
</filter>
</defs>
</svg>
