<svg width="33" height="34" viewBox="0 0 33 34" fill="none" xmlns="http://www.w3.org/2000/svg">
<g clip-path="url(#clip0_2933_117489)" filter="url(#filter0_d_2933_117489)">
<path fill-rule="evenodd" clip-rule="evenodd" d="M10.8223 13.8718L16.0012 8.69304L21.1844 13.8764L24.1976 10.8631L16.0012 2.66663L7.80912 10.8587L10.8223 13.8718ZM2.6665 16.0009L5.67893 12.9885L8.69134 16.0009L5.67893 19.0133L2.6665 16.0009ZM16.0012 23.3109L10.8223 18.1321L7.80465 21.1409L7.80909 21.1453L16.0012 29.3373L24.1976 21.1409L21.1844 18.1277L16.0012 23.3109ZM23.3084 16.003L26.3208 12.9906L29.3332 16.003L26.3208 19.0154L23.3084 16.003ZM16.0012 12.9444L19.0588 16.002L16.0012 19.064L12.9436 16.0064V15.9976L13.4805 15.4606L13.7424 15.2032L16.0012 12.9444Z" fill="#F3BA2F"/>
</g>
<defs>
<filter id="filter0_d_2933_117489" x="0" y="0" width="33" height="34" filterUnits="userSpaceOnUse" color-interpolation-filters="sRGB">
<feFlood flood-opacity="0" result="BackgroundImageFix"/>
<feColorMatrix in="SourceAlpha" type="matrix" values="0 0 0 0 0 0 0 0 0 0 0 0 0 0 0 0 0 0 127 0" result="hardAlpha"/>
<feOffset dx="1" dy="2"/>
<feColorMatrix type="matrix" values="0 0 0 0 0.0627451 0 0 0 0 0.0627451 0 0 0 0 0.0627451 0 0 0 1 0"/>
<feBlend mode="normal" in2="BackgroundImageFix" result="effect1_dropShadow_2933_117489"/>
<feBlend mode="normal" in="SourceGraphic" in2="effect1_dropShadow_2933_117489" result="shape"/>
</filter>
<clipPath id="clip0_2933_117489">
<rect width="32" height="32" fill="white"/>
</clipPath>
</defs>
</svg>
