<svg width="33" height="34" viewBox="0 0 33 34" fill="none" xmlns="http://www.w3.org/2000/svg">
<g clip-path="url(#clip0_2933_117493)" filter="url(#filter0_d_2933_117493)">
<path fill-rule="evenodd" clip-rule="evenodd" d="M22.6665 2.66671C22.6665 1.93033 22.0695 1.33337 21.3332 1.33337C20.5968 1.33337 19.9998 1.93033 19.9998 2.66671V4.00004H11.9998V2.66671C11.9998 1.93033 11.4029 1.33337 10.6665 1.33337C9.93013 1.33337 9.33317 1.93033 9.33317 2.66671V4.00221C8.69922 4.00657 8.14515 4.01966 7.66407 4.05897C6.91461 4.1202 6.22567 4.25162 5.57856 4.58134C4.57503 5.09266 3.75913 5.90856 3.2478 6.91209C2.91808 7.55921 2.78666 8.24814 2.72543 8.99761C2.66648 9.71919 2.66649 10.605 2.6665 11.6783V22.9885C2.66649 24.0617 2.66648 24.9476 2.72543 25.6691C2.78666 26.4186 2.91808 27.1075 3.2478 27.7547C3.75913 28.7582 4.57503 29.5741 5.57856 30.0854C6.22567 30.4151 6.91461 30.5465 7.66407 30.6078C8.38566 30.6667 9.27146 30.6667 10.3447 30.6667H21.6549C22.7282 30.6667 23.614 30.6667 24.3356 30.6078C25.0851 30.5465 25.774 30.4151 26.4211 30.0854C27.4247 29.5741 28.2405 28.7582 28.7519 27.7547C29.0816 27.1075 29.213 26.4186 29.2742 25.6691C29.3332 24.9476 29.3332 24.0618 29.3332 22.9885V11.6783C29.3332 10.605 29.3332 9.71919 29.2742 8.99761C29.213 8.24814 29.0816 7.55921 28.7519 6.91209C28.2405 5.90856 27.4247 5.09266 26.4211 4.58134C25.774 4.25162 25.0851 4.1202 24.3356 4.05897C23.8545 4.01966 23.3005 4.00657 22.6665 4.00221V2.66671ZM9.33317 8.00004V6.66906C8.73913 6.67323 8.27268 6.68479 7.88122 6.71678C7.29667 6.76454 6.99773 6.8511 6.7892 6.95736C6.28743 7.21302 5.87948 7.62097 5.62382 8.12273C5.51757 8.33127 5.431 8.6302 5.38324 9.21476C5.33421 9.81488 5.33317 10.5913 5.33317 11.7334V12H26.6665V11.7334C26.6665 10.5913 26.6655 9.81488 26.6164 9.21476C26.5687 8.6302 26.4821 8.33127 26.3759 8.12273C26.1202 7.62097 25.7122 7.21302 25.2105 6.95736C25.0019 6.8511 24.703 6.76454 24.1185 6.71678C23.727 6.68479 23.2605 6.67323 22.6665 6.66906V8.00004C22.6665 8.73642 22.0695 9.33337 21.3332 9.33337C20.5968 9.33337 19.9998 8.73642 19.9998 8.00004V6.66671H11.9998V8.00004C11.9998 8.73642 11.4029 9.33337 10.6665 9.33337C9.93013 9.33337 9.33317 8.73642 9.33317 8.00004ZM16.629 16.1578C17.0625 16.3898 17.3331 16.8416 17.3331 17.3334V22.6667H17.6665C18.4029 22.6667 18.9998 23.2637 18.9998 24C18.9998 24.7364 18.4029 25.3334 17.6665 25.3334H14.3332C13.5968 25.3334 12.9998 24.7364 12.9998 24C12.9998 23.2637 13.5968 22.6667 14.3332 22.6667H14.6665V19.8215C14.0625 20.1709 13.2829 19.995 12.8904 19.4063C12.4819 18.7936 12.6475 17.9658 13.2602 17.5573L15.2602 16.224C15.6694 15.9512 16.1954 15.9258 16.629 16.1578Z" fill="white"/>
</g>
<defs>
<filter id="filter0_d_2933_117493" x="0" y="0" width="33" height="34" filterUnits="userSpaceOnUse" color-interpolation-filters="sRGB">
<feFlood flood-opacity="0" result="BackgroundImageFix"/>
<feColorMatrix in="SourceAlpha" type="matrix" values="0 0 0 0 0 0 0 0 0 0 0 0 0 0 0 0 0 0 127 0" result="hardAlpha"/>
<feOffset dx="1" dy="2"/>
<feColorMatrix type="matrix" values="0 0 0 0 0.0627451 0 0 0 0 0.0627451 0 0 0 0 0.0627451 0 0 0 1 0"/>
<feBlend mode="normal" in2="BackgroundImageFix" result="effect1_dropShadow_2933_117493"/>
<feBlend mode="normal" in="SourceGraphic" in2="effect1_dropShadow_2933_117493" result="shape"/>
</filter>
<clipPath id="clip0_2933_117493">
<rect width="32" height="32" fill="white"/>
</clipPath>
</defs>
</svg>
