<svg width="33" height="34" viewBox="0 0 33 34" fill="none" xmlns="http://www.w3.org/2000/svg">
<g clip-path="url(#clip0_2933_117488)" filter="url(#filter0_d_2933_117488)">
<path d="M26.2763 19.0572C26.0263 18.8071 25.6871 18.6666 25.3335 18.6666C24.9799 18.6666 24.6407 18.8071 24.3907 19.0572L20.3907 23.0572C19.87 23.5778 19.87 24.4221 20.3907 24.9428C20.9114 25.4635 21.7556 25.4635 22.2763 24.9428L24.0002 23.2189V28C24.0002 28.7363 24.5971 29.3333 25.3335 29.3333C26.0699 29.3333 26.6668 28.7363 26.6668 28V23.2189L28.3907 24.9428C28.9114 25.4635 29.7556 25.4635 30.2763 24.9428C30.797 24.4221 30.797 23.5778 30.2763 23.0572L26.2763 19.0572Z" fill="white"/>
<path fill-rule="evenodd" clip-rule="evenodd" d="M16.2415 18.8846C16.6178 19.0764 16.9238 19.3823 17.1155 19.7586C17.3196 20.1592 17.3337 20.5968 17.3335 21.0358C17.3335 21.0462 17.3335 21.0565 17.3335 21.0666C17.3335 23.0325 17.3328 24.9983 17.3335 26.9641C17.3336 27.123 17.3336 27.3126 17.32 27.4797C17.3042 27.6734 17.2636 27.9507 17.1155 28.2413C16.9238 28.6176 16.6178 28.9236 16.2415 29.1153C15.9509 29.2634 15.6736 29.304 15.4799 29.3198C15.3129 29.3334 15.1232 29.3334 14.9644 29.3333C11.2104 29.3319 7.45651 29.3319 3.70258 29.3333C3.54357 29.3334 3.35348 29.3334 3.18597 29.3197C2.99168 29.3038 2.7138 29.2629 2.42276 29.1141C2.04596 28.9214 1.7392 28.6133 1.54828 28.2356C1.40121 27.9446 1.36133 27.6675 1.34617 27.4728C1.33315 27.3054 1.33409 27.1159 1.33487 26.9579C1.34174 25.5722 1.30043 24.0871 1.84097 22.7821C2.5176 21.1485 3.81543 19.8507 5.44895 19.1741C6.12855 18.8926 6.84626 18.7758 7.65791 18.7205C8.44726 18.6666 9.41714 18.6666 10.6195 18.6666C12.0678 18.6666 13.5161 18.6672 14.9644 18.6666C15.4034 18.6664 15.8409 18.6805 16.2415 18.8846Z" fill="white"/>
<path fill-rule="evenodd" clip-rule="evenodd" d="M19.4309 3.88735C19.7072 3.20477 20.4845 2.87542 21.1671 3.15172C23.6079 4.1397 25.3335 6.53338 25.3335 9.33329C25.3335 12.1332 23.6079 14.5269 21.1671 15.5149C20.4845 15.7912 19.7072 15.4618 19.4309 14.7792C19.1546 14.0967 19.484 13.3193 20.1666 13.043C21.6349 12.4486 22.6668 11.0099 22.6668 9.33329C22.6668 7.6567 21.6349 6.21794 20.1666 5.62355C19.484 5.34725 19.1546 4.56993 19.4309 3.88735Z" fill="white"/>
<path fill-rule="evenodd" clip-rule="evenodd" d="M6.00017 9.33329C6.00017 5.65139 8.98494 2.66663 12.6668 2.66663C16.3487 2.66663 19.3335 5.65139 19.3335 9.33329C19.3335 13.0152 16.3487 16 12.6668 16C8.98494 16 6.00017 13.0152 6.00017 9.33329Z" fill="white"/>
</g>
<defs>
<filter id="filter0_d_2933_117488" x="0" y="0" width="33" height="34" filterUnits="userSpaceOnUse" color-interpolation-filters="sRGB">
<feFlood flood-opacity="0" result="BackgroundImageFix"/>
<feColorMatrix in="SourceAlpha" type="matrix" values="0 0 0 0 0 0 0 0 0 0 0 0 0 0 0 0 0 0 127 0" result="hardAlpha"/>
<feOffset dx="1" dy="2"/>
<feColorMatrix type="matrix" values="0 0 0 0 0.0627451 0 0 0 0 0.0627451 0 0 0 0 0.0627451 0 0 0 1 0"/>
<feBlend mode="normal" in2="BackgroundImageFix" result="effect1_dropShadow_2933_117488"/>
<feBlend mode="normal" in="SourceGraphic" in2="effect1_dropShadow_2933_117488" result="shape"/>
</filter>
<clipPath id="clip0_2933_117488">
<rect width="32" height="32" fill="white"/>
</clipPath>
</defs>
</svg>
