<svg width="33" height="34" viewBox="0 0 33 34" fill="none" xmlns="http://www.w3.org/2000/svg">
<g clip-path="url(#clip0_2935_117526)" filter="url(#filter0_d_2935_117526)">
<path fill-rule="evenodd" clip-rule="evenodd" d="M16.0002 1.33337C7.89999 1.33337 1.3335 7.89986 1.3335 16C1.3335 24.1002 7.89999 30.6667 16.0002 30.6667C24.1003 30.6667 30.6668 24.1002 30.6668 16C30.6668 7.89986 24.1003 1.33337 16.0002 1.33337ZM22.943 12.9428C23.4637 12.4222 23.4637 11.5779 22.943 11.0572C22.4223 10.5365 21.5781 10.5365 21.0574 11.0572L14.0002 18.1144L10.943 15.0572C10.4223 14.5365 9.57805 14.5365 9.05735 15.0572C8.53665 15.5779 8.53665 16.4222 9.05735 16.9428L13.0574 20.9428C13.5781 21.4635 14.4223 21.4635 14.943 20.9428L22.943 12.9428Z" fill="white"/>
</g>
<defs>
<filter id="filter0_d_2935_117526" x="0" y="0" width="33" height="34" filterUnits="userSpaceOnUse" color-interpolation-filters="sRGB">
<feFlood flood-opacity="0" result="BackgroundImageFix"/>
<feColorMatrix in="SourceAlpha" type="matrix" values="0 0 0 0 0 0 0 0 0 0 0 0 0 0 0 0 0 0 127 0" result="hardAlpha"/>
<feOffset dx="1" dy="2"/>
<feColorMatrix type="matrix" values="0 0 0 0 0.0627451 0 0 0 0 0.0627451 0 0 0 0 0.0627451 0 0 0 1 0"/>
<feBlend mode="normal" in2="BackgroundImageFix" result="effect1_dropShadow_2935_117526"/>
<feBlend mode="normal" in="SourceGraphic" in2="effect1_dropShadow_2935_117526" result="shape"/>
</filter>
<clipPath id="clip0_2935_117526">
<rect width="32" height="32" fill="white"/>
</clipPath>
</defs>
</svg>
