<svg xmlns="http://www.w3.org/2000/svg" width="58" height="58" fill="none" xmlns:v="https://vecta.io/nano"><g clip-path="url(#A)"><path d="M56.54 19.271l-4.879-1.751h0a17.57 17.57 0 0 0-1.015-2.448l2.212-4.689a.82.82 0 0 0-.162-.929l-4.22-4.22a.82.82 0 0 0-.929-.162l-4.689 2.212c-.784-.397-1.608-.739-2.448-1.015L38.66 1.39a.82.82 0 0 0-.772-.543H31.92a.82.82 0 0 0-.771.543l-1.751 4.879c-.84.276-1.664.617-2.448 1.015l-4.689-2.212a.82.82 0 0 0-.929.162l-4.22 4.22a.82.82 0 0 0-.162.929l2.212 4.689c-.398.787-.739 1.611-1.014 2.448l-4.879 1.751a.82.82 0 0 0-.543.771v5.968a.82.82 0 0 0 .543.771l4.879 1.751a17.54 17.54 0 0 0 1.014 2.448l-2.212 4.689a.82.82 0 0 0 .162.929l4.22 4.22a.82.82 0 0 0 .929.162l4.689-2.212a17.59 17.59 0 0 0 2.448 1.015l1.751 4.879a.82.82 0 0 0 .772.543h5.968a.82.82 0 0 0 .772-.543l1.751-4.879a17.58 17.58 0 0 0 2.448-1.015l4.689 2.212a.82.82 0 0 0 .929-.162l4.22-4.221a.82.82 0 0 0 .162-.929l-2.212-4.688a17.57 17.57 0 0 0 1.015-2.448l4.879-1.751a.82.82 0 0 0 .543-.771v-5.968a.82.82 0 0 0-.543-.771zM34.998 30.128c-3.922 0-7.101-3.179-7.101-7.101s3.18-7.101 7.101-7.101 7.102 3.179 7.102 7.102-3.18 7.101-7.102 7.101z" fill="#f7ac16"/><path d="M34.904 13.931a9.1 9.1 0 0 0-9.095 9.096 9.1 9.1 0 0 0 9.095 9.095A9.1 9.1 0 0 0 44 23.026a9.1 9.1 0 0 0-9.096-9.095zm0 14.717c-3.105 0-5.622-2.517-5.622-5.622s2.517-5.622 5.622-5.622 5.622 2.517 5.622 5.622-2.517 5.622-5.622 5.622z" fill="#f27019"/><path d="M22.601 23.026c0-10.163 6.836-18.729 16.161-21.352-.085-.238-.227-.827-.873-.827H31.92a.82.82 0 0 0-.772.543l-1.751 4.879a17.57 17.57 0 0 0-2.448 1.015l-4.689-2.212a.82.82 0 0 0-.929.162l-4.22 4.22a.82.82 0 0 0-.162.929l2.212 4.689a17.64 17.64 0 0 0-1.014 2.448l-4.879 1.751a.82.82 0 0 0-.543.771v5.968a.82.82 0 0 0 .543.771l4.879 1.751c.275.839.617 1.662 1.014 2.448L16.95 35.67a.82.82 0 0 0 .162.929l4.22 4.22a.82.82 0 0 0 .929.162l4.689-2.212c.785.398 1.609.739 2.448 1.015l1.751 4.879a.82.82 0 0 0 .772.543h5.968c.649 0 .791-.596.874-.827-9.325-2.623-16.161-11.189-16.161-21.352z" fill="#f2961d"/><path d="M31.246 39.276l-3.363-1.207c-.19-.579-.426-1.146-.7-1.687l1.525-3.232c.102-.216.057-.472-.111-.641l-2.909-2.909c-.169-.169-.425-.213-.641-.111l-3.232 1.525a12.09 12.09 0 0 0-1.688-.699L18.92 26.95c-.081-.224-.293-.374-.532-.374h-4.114c-.238 0-.451.15-.532.374l-1.207 3.363a12.14 12.14 0 0 0-1.688.699l-3.232-1.525c-.216-.102-.472-.057-.641.111l-2.909 2.909c-.169.169-.213.425-.111.641l1.525 3.232a12.13 12.13 0 0 0-.699 1.688l-3.363 1.207c-.224.081-.374.293-.374.532v4.114c0 .238.15.451.374.532L4.78 45.66c.19.578.425 1.146.699 1.687L3.954 50.58c-.102.216-.057.472.111.641l2.909 2.909c.169.168.425.213.641.111l3.232-1.525c.541.274 1.109.509 1.688.699l1.207 3.363c.08.224.293.374.532.374h4.114c.238 0 .451-.15.532-.374l1.207-3.363a12.14 12.14 0 0 0 1.688-.699l3.232 1.525c.216.101.472.057.641-.112l2.909-2.909c.169-.169.213-.425.111-.641l-1.525-3.232a12.1 12.1 0 0 0 .699-1.688l3.363-1.207c.224-.081.374-.293.374-.532v-4.114c0-.238-.15-.451-.374-.532zm-14.914 7.137a4.55 4.55 0 0 1-4.548-4.548 4.55 4.55 0 0 1 4.548-4.548 4.55 4.55 0 0 1 4.548 4.548 4.55 4.55 0 0 1-4.548 4.548z" fill="#f7ac16"/><path d="M16.331 35.595a6.27 6.27 0 0 0-6.27 6.27 6.27 6.27 0 0 0 12.54 0 6.27 6.27 0 0 0-6.27-6.27zm0 9.404c-1.731 0-3.135-1.404-3.135-3.135s1.403-3.135 3.135-3.135 3.135 1.404 3.135 3.135-1.404 3.135-3.135 3.135z" fill="#f27019"/><g fill="#e26814"><path d="M28.125 23.026c0-4.631 3.462-8.45 7.937-9.019-5.484-.697-10.254 3.574-10.254 9.019s4.765 9.717 10.254 9.019c-4.476-.569-7.937-4.389-7.937-9.019zM12.378 41.864a6.27 6.27 0 0 1 5.112-6.161c-3.871-.723-7.428 2.243-7.428 6.161a6.27 6.27 0 0 0 7.428 6.161 6.27 6.27 0 0 1-5.112-6.161z"/></g><path d="M8.147 41.827c0-6.9 4.582-12.728 10.869-14.611-.085-.238-.176-.64-.627-.64h-4.114c-.238 0-.451.15-.532.374l-1.207 3.363a12.14 12.14 0 0 0-1.688.699l-3.232-1.525c-.216-.102-.472-.057-.641.111l-2.909 2.909c-.169.168-.213.425-.111.64l1.525 3.232a12.13 12.13 0 0 0-.699 1.688l-3.363 1.207c-.224.081-.374.293-.374.532v4.114c0 .238.15.451.374.532L4.78 45.66c.19.578.425 1.146.699 1.687L3.954 50.58c-.102.216-.057.472.111.64l2.909 2.909c.169.168.425.213.641.111l3.232-1.525c.541.274 1.109.509 1.688.699l1.207 3.363c.08.224.293.374.532.374h4.114c.238 0 .451-.15.532-.374l.12-.334C12.741 54.57 8.147 48.735 8.147 41.827z" fill="#f2961d"/><g fill="#101010"><path d="M57.306 18.668l-5.037-1.808a18.49 18.49 0 0 0-.744-1.796l2.365-5.203a.85.85 0 0 0-.248-.599l-5.635-5.284c-.267 0 .055-.116-5.202 2.365-.583-.278-1.184-.528-1.796-.744L39.2.561A.85.85 0 0 0 38.402 0H31.28a.85.85 0 0 0-.798.561l-1.808 5.038c-.611.216-1.212.466-1.796.744l-4.841-2.284a.85.85 0 0 0-.961.167L16.04 9.262a.85.85 0 0 0-.167.961l2.284 4.841a18.51 18.51 0 0 0-.744 1.796l-5.038 1.808c-.337.121-.561.44-.561.798v7.122c0 .659.607.814.78.876l-.783 2.182-1.032.428-3.225-1.521a.85.85 0 0 0-.961.167l-3.47 3.47c-.253.253-.32.637-.167.961l1.521 3.225-.428 1.032-3.356 1.205c-.337.121-.561.44-.561.798v4.909a.85.85 0 0 0 .561.798l3.356 1.204.428 1.032-1.521 3.225c-.153.323-.086.708.167.961l3.471 3.471a.85.85 0 0 0 .961.167l3.225-1.521 1.032.428 1.204 3.355a.85.85 0 0 0 .798.561h4.909c.358 0 .677-.224.798-.561l1.204-3.355 1.032-.428 3.225 1.521a.85.85 0 0 0 .961-.167l3.471-3.471c.253-.253.32-.637.167-.961l-1.521-3.224.428-1.032 2.039-.732c.143.281.432.464.754.464h7.122a.85.85 0 0 0 .798-.561l1.808-5.037a18.19 18.19 0 0 0 1.796-.744l4.841 2.284a.85.85 0 0 0 .741-.009c.176-.088-.18.241 5.255-5.195.253-.253.32-.637.167-.961l-2.284-4.841c.279-.584.528-1.185.744-1.796l5.037-1.808c.337-.121.561-.44.561-.798v-7.122c0-.357-.224-.677-.561-.797zM30.709 43.723c-4.666 1.675-3.052.69-4.345 3.242a.85.85 0 0 0-.011.745l1.44 3.052-2.628 2.628-3.052-1.44a.85.85 0 0 0-.744.011c-1.499.759-1.886.565-2.102 1.169l-1.14 3.176H14.41l-1.14-3.176a.85.85 0 0 0-.533-.519c-2.687-.882-.867-1.343-5.366.779l-2.628-2.628 1.44-3.052c.112-.236.108-.511-.01-.744-1.276-2.52.338-1.561-4.345-3.242v-3.716l3.176-1.14c.603-.217.409-.601 1.169-2.102a.85.85 0 0 0 .01-.744l-1.44-3.052 2.628-2.628 3.052 1.44c.237.112.511.108.745-.011 2.522-1.277 1.561.338 3.242-4.345h3.717l1.14 3.176a.85.85 0 0 0 .533.519c1.599.526 1.735.934 2.314.661l3.053-1.44 2.628 2.628-1.44 3.052a.85.85 0 0 0 .011.745c1.276 2.52-.338 1.561 4.345 3.242v3.717zm25.463-17.732l-4.86 1.744c-.659.236-.394.711-1.484 2.863a.85.85 0 0 0-.011.744l2.204 4.671-4.192 4.193-4.671-2.204c-.637-.3-.761.217-3.074.976a.85.85 0 0 0-.533.519l-1.744 4.86h-5.403l.001-4.947a.85.85 0 0 0-.561-.798l-3.356-1.205-.428-1.032 1.602-3.604a.85.85 0 0 0-.248-.581l-3.987-3.715c-.311-.031-.14-.068-3.67 1.598l-1.032-.428-1.204-3.355a.85.85 0 0 0-.798-.561c-5.315 0-5.011-.022-5.213.056v-5.723l4.861-1.745a.85.85 0 0 0 .519-.533c.76-2.315 1.277-2.436.976-3.074l-2.204-4.671 4.193-4.193 4.671 2.204c.638.301.758-.215 3.074-.976a.85.85 0 0 0 .533-.519l1.744-4.86h5.929l1.744 4.86c.239.664.695.387 2.863 1.484.233.118.508.122.744.01l4.671-2.204 4.192 4.193-2.204 4.671a.84.84 0 0 0 .011.744c1.099 2.169.819 2.624 1.484 2.863l4.86 1.744v5.929h0 0zM18.513 35.11c-.444-.148-.924.093-1.071.537a.85.85 0 0 0 .537 1.071c2.22.738 3.712 2.805 3.712 5.145a5.43 5.43 0 0 1-5.422 5.422 5.43 5.43 0 0 1-5.422-5.422c0-2.34 1.492-4.408 3.712-5.145.444-.148.685-.627.537-1.071s-.627-.685-1.071-.537c-2.915.968-4.873 3.682-4.873 6.754a7.13 7.13 0 0 0 7.117 7.117 7.13 7.13 0 0 0 7.117-7.117c0-3.072-1.958-5.786-4.873-6.754zm25.389-10.934a.85.85 0 0 0-1.011.644 8.3 8.3 0 0 1-8.05 6.454 8.26 8.26 0 0 1-8.248-8.248 8.26 8.26 0 0 1 8.248-8.248 8.3 8.3 0 0 1 8.05 6.454.85.85 0 0 0 1.011.644.85.85 0 0 0 .644-1.011c-.99-4.464-4.976-7.782-9.705-7.782-5.483 0-9.943 4.461-9.943 9.943 0 8.325 9.721 12.991 16.206 7.721 1.737-1.411 2.959-3.386 3.442-5.56a.85.85 0 0 0-.644-1.011zM12.314 41.878a3.99 3.99 0 0 0 3.982 3.982 3.99 3.99 0 0 0 3.982-3.982 3.99 3.99 0 0 0-3.982-3.982 3.99 3.99 0 0 0-3.982 3.982zm3.982-2.288a2.29 2.29 0 0 1 2.287 2.288 2.29 2.29 0 0 1-2.287 2.287 2.29 2.29 0 0 1-2.287-2.287 2.29 2.29 0 0 1 2.287-2.288zm18.573-23.02a6.48 6.48 0 0 0-6.469 6.47 6.48 6.48 0 0 0 6.469 6.469 6.48 6.48 0 0 0 6.47-6.469 6.48 6.48 0 0 0-6.47-6.469zm0 11.244a4.78 4.78 0 0 1-4.775-4.774 4.78 4.78 0 0 1 4.775-4.775 4.78 4.78 0 0 1 4.775 4.775 4.78 4.78 0 0 1-4.775 4.775z"/></g></g><defs><clipPath id="A"><path fill="#fff" d="M0 0h58v58H0z"/></clipPath></defs></svg>