<svg width="33" height="34" viewBox="0 0 33 34" fill="none" xmlns="http://www.w3.org/2000/svg">
<g clip-path="url(#clip0_2935_117529)" filter="url(#filter0_d_2935_117529)">
<path fill-rule="evenodd" clip-rule="evenodd" d="M16 2.90909C8.77009 2.90909 2.90909 8.77009 2.90909 16C2.90909 23.2299 8.77009 29.0909 16 29.0909C23.2299 29.0909 29.0909 23.2299 29.0909 16C29.0909 8.77009 23.2299 2.90909 16 2.90909ZM0 16C0 7.16344 7.16344 0 16 0C24.8366 0 32 7.16344 32 16C32 24.8366 24.8366 32 16 32C7.16344 32 0 24.8366 0 16Z" fill="white"/>
</g>
<defs>
<filter id="filter0_d_2935_117529" x="0" y="0" width="33" height="34" filterUnits="userSpaceOnUse" color-interpolation-filters="sRGB">
<feFlood flood-opacity="0" result="BackgroundImageFix"/>
<feColorMatrix in="SourceAlpha" type="matrix" values="0 0 0 0 0 0 0 0 0 0 0 0 0 0 0 0 0 0 127 0" result="hardAlpha"/>
<feOffset dx="1" dy="2"/>
<feColorMatrix type="matrix" values="0 0 0 0 0.0627451 0 0 0 0 0.0627451 0 0 0 0 0.0627451 0 0 0 1 0"/>
<feBlend mode="normal" in2="BackgroundImageFix" result="effect1_dropShadow_2935_117529"/>
<feBlend mode="normal" in="SourceGraphic" in2="effect1_dropShadow_2935_117529" result="shape"/>
</filter>
<clipPath id="clip0_2935_117529">
<rect width="32" height="32" fill="white"/>
</clipPath>
</defs>
</svg>
