<svg width="33" height="34" viewBox="0 0 33 34" fill="none" xmlns="http://www.w3.org/2000/svg">
<g clip-path="url(#clip0_2935_117513)" filter="url(#filter0_d_2935_117513)">
<path d="M11.326 1.33345L11.2794 1.33312C11.1102 1.33145 10.7594 1.32799 10.4267 1.44276C10.1464 1.53942 9.89116 1.69718 9.67937 1.90461C9.4279 2.15091 9.27411 2.46624 9.19996 2.61827L9.1794 2.66014L3.56054 13.8978C3.44944 14.1199 3.32914 14.3603 3.24633 14.5723C3.15952 14.7946 3.03364 15.1747 3.10029 15.6258C3.18069 16.17 3.48172 16.6571 3.93253 16.9724C4.30619 17.2337 4.70245 17.2911 4.94007 17.3129C5.16671 17.3336 5.43557 17.3335 5.68385 17.3335L12.2081 17.3334L8.72302 28.9503C8.5462 29.5397 8.7957 30.1736 9.32684 30.4843C9.85798 30.795 10.5328 30.7019 10.9599 30.259L27.2516 13.3639C27.4959 13.1106 27.7376 12.86 27.9148 12.6402C28.0748 12.4417 28.3896 12.0295 28.4268 11.465C28.4686 10.8313 28.2069 10.2154 27.7217 9.80558C27.2895 9.4405 26.7743 9.38101 26.5203 9.35838C26.2391 9.33334 25.891 9.33339 25.539 9.33344L17.9241 9.33345L20.2486 3.13495C20.4021 2.72548 20.3451 2.26676 20.096 1.90732C19.8469 1.54789 19.4374 1.33345 19.0001 1.33345H11.326Z" fill="#FDE74C"/>
</g>
<defs>
<filter id="filter0_d_2935_117513" x="0" y="0" width="33" height="34" filterUnits="userSpaceOnUse" color-interpolation-filters="sRGB">
<feFlood flood-opacity="0" result="BackgroundImageFix"/>
<feColorMatrix in="SourceAlpha" type="matrix" values="0 0 0 0 0 0 0 0 0 0 0 0 0 0 0 0 0 0 127 0" result="hardAlpha"/>
<feOffset dx="1" dy="2"/>
<feColorMatrix type="matrix" values="0 0 0 0 0.0627451 0 0 0 0 0.0627451 0 0 0 0 0.0627451 0 0 0 1 0"/>
<feBlend mode="normal" in2="BackgroundImageFix" result="effect1_dropShadow_2935_117513"/>
<feBlend mode="normal" in="SourceGraphic" in2="effect1_dropShadow_2935_117513" result="shape"/>
</filter>
<clipPath id="clip0_2935_117513">
<rect width="32" height="32" fill="white"/>
</clipPath>
</defs>
</svg>
