<svg width="65" height="64" viewBox="0 0 65 64" fill="none" xmlns="http://www.w3.org/2000/svg">
<path d="M54.964 34.1648H50.0145C50.519 35.546 50.7946 37.0367 50.7946 38.5903V57.2966C50.7946 57.9443 50.6819 58.5661 50.4767 59.1443H58.6594C61.716 59.1443 64.2026 56.6576 64.2026 53.6011V43.4034C64.2028 38.3093 60.0583 34.1648 54.964 34.1648Z" fill="white"/>
<path d="M13.6108 38.5904C13.6108 37.0367 13.8864 35.5462 14.3909 34.1649H9.44141C4.34714 34.1649 0.202637 38.3094 0.202637 43.4037V53.6013C0.202637 56.6578 2.68927 59.1446 5.7459 59.1446H13.9287C13.7235 58.5661 13.6108 57.9445 13.6108 57.2967V38.5904Z" fill="white"/>
<path d="M37.8603 29.3517H26.5451C21.4508 29.3517 17.3063 33.4962 17.3063 38.5904V57.2967C17.3063 58.3171 18.1335 59.1445 19.154 59.1445H45.2514C46.2719 59.1445 47.0991 58.3172 47.0991 57.2967V38.5904C47.0991 33.4962 42.9546 29.3517 37.8603 29.3517Z" fill="white"/>
<path d="M32.2027 4.85474C26.0762 4.85474 21.0919 9.839 21.0919 15.9656C21.0919 20.1213 23.3856 23.7506 26.7728 25.6562C28.3794 26.5599 30.2317 27.0764 32.2027 27.0764C34.1737 27.0764 36.026 26.5599 37.6326 25.6562C41.02 23.7506 43.3135 20.1211 43.3135 15.9656C43.3135 9.83912 38.3292 4.85474 32.2027 4.85474Z" fill="white"/>
<path d="M12.6924 15.2109C8.11053 15.2109 4.38302 18.9384 4.38302 23.5203C4.38302 28.1022 8.11053 31.8297 12.6924 31.8297C13.8547 31.8297 14.9614 31.5889 15.9668 31.1562C17.705 30.4078 19.1383 29.083 20.0252 27.4237C20.6477 26.259 21.0018 24.9304 21.0018 23.5203C21.0018 18.9385 17.2743 15.2109 12.6924 15.2109Z" fill="white"/>
<path d="M51.713 15.2109C47.1311 15.2109 43.4036 18.9384 43.4036 23.5203C43.4036 24.9305 43.7577 26.2592 44.3802 27.4237C45.2671 29.0832 46.7004 30.4079 48.4386 31.1562C49.444 31.5889 50.5507 31.8297 51.713 31.8297C56.2949 31.8297 60.0224 28.1022 60.0224 23.5203C60.0224 18.9384 56.2949 15.2109 51.713 15.2109Z" fill="white"/>
</svg>
