<svg width="65" height="64" viewBox="0 0 65 64" fill="none" xmlns="http://www.w3.org/2000/svg">
<g clip-path="url(#clip0_2884_189898)">
<path fill-rule="evenodd" clip-rule="evenodd" d="M38.3656 27.2909C37.6848 28.3681 37.0381 29.3112 36.2555 30.2581C40.4502 31.4602 45.0515 35.0308 46.6247 38.4237C49.9605 31.6331 56.5107 21.3978 59.24 16.0876C62.9521 8.86696 55.8337 0.500856 48.4888 9.93819C44.7187 14.7745 41.7307 21.9009 38.3656 27.2909Z" fill="white"/>
<path fill-rule="evenodd" clip-rule="evenodd" d="M33.6718 57.5638C39.5009 53.7962 47.3118 50.134 48.7274 42.787C48.743 41.7408 48.862 40.6745 49.3802 39.7875C53.9287 32 58.0829 23.7481 62.2941 16.8712C66.5054 9.99419 61.1096 -0.555201 52.2675 2.50447C46.2148 4.96991 43.4503 11.3439 40.537 16.6421C39.2784 13.4131 35.3524 11.3048 32.0412 12.3557C30.3152 9.48602 26.3564 8.1672 23.4089 9.49992C20.5848 6.45752 16.254 6.42074 13.3355 9.26553L13.329 9.2616C5.55021 17.5625 4.2955 30.3112 3.88079 41.3921C2.96078 42.5979 1.99349 43.8425 1.14003 45.1025C0.491669 45.92 1.34306 46.921 1.8764 47.6231C7.11858 54.7798 21.1045 63.668 30.1254 62.8272C31.0873 62.8077 31.6578 62.0341 31.9451 61.2394C32.5203 60.015 33.096 58.7894 33.6718 57.5638ZM32.2957 56.744C31.7024 58.0097 31.1071 59.2758 30.5126 60.5407C30.3621 60.9441 30.0546 61.3304 29.5631 61.336C21.1433 61.9197 7.71197 53.2873 2.92966 46.5229C2.04102 45.5293 4.76349 43.1705 5.26327 42.2045C6.12634 32.0402 6.43236 20.6086 12.9637 12.2107C15.0134 8.51045 20.2963 7.01257 23.0207 11.4485C25.9017 9.39925 30.1018 10.861 31.3685 14.2644C34.8213 12.3765 38.8401 14.778 39.5832 18.5344L39.5824 18.5355C39.8393 19.5462 39.9216 20.5666 39.8826 21.5939C43.2694 15.3325 45.8931 7.16429 52.892 3.92873C60.3982 1.37028 64.1088 10.8374 60.8837 16.1273C56.4858 24.2404 51.6793 31.6599 47.374 39.8475C47.2871 40.0128 47.1915 40.1455 47.33 40.3911L47.3293 40.3923C47.8273 42.4109 46.9246 44.0607 45.9738 45.644C43.02 50.7539 36.9019 53.3094 32.2957 56.744Z" fill="white"/>
<path fill-rule="evenodd" clip-rule="evenodd" d="M14.4974 44.5274L15.4481 45.085L16.6036 43.8178L15.6741 43.2256L14.4974 44.5274Z" fill="white"/>
<path fill-rule="evenodd" clip-rule="evenodd" d="M12.8846 16.6839C11.818 21.8149 14.1167 27.3363 18.638 25.5006C17.0938 20.8932 18.4866 15.606 21.8188 12.3678C21.5358 11.8815 21.2026 11.4628 20.8252 11.1251L20.8259 11.1239C16.93 8.0792 13.4457 13.2903 12.8846 16.6839Z" fill="white"/>
<path fill-rule="evenodd" clip-rule="evenodd" d="M20.0822 18.3629C18.6667 22.3457 20.1025 30.0422 25.7049 27.86C24.5731 23.1645 26.4024 17.9868 30.0586 15.0717C27.1403 8.43447 21.0114 13.9157 20.0822 18.3629Z" fill="white"/>
<path fill-rule="evenodd" clip-rule="evenodd" d="M27.722 21.0205C26.6533 24.1732 26.3163 27.6229 28.6798 30.1651C30.2054 29.4956 32.4705 29.4233 34.4033 29.8007C35.7135 28.7066 36.6308 27.3877 37.3707 25.641C41.4124 15.2925 31.9616 10.6027 27.722 21.0205Z" fill="white"/>
<path fill-rule="evenodd" clip-rule="evenodd" d="M43.1807 46.7689C43.8154 46.0417 44.4908 45.1277 44.9207 44.2273C44.9227 44.2269 44.9221 44.225 44.9221 44.225C45.1949 43.7019 45.4423 43.1287 45.596 42.571L45.5968 42.5699C45.8104 41.8223 45.8599 41.1538 45.7008 40.408L45.7016 40.4068C45.1502 36.8138 39.3789 32.333 34.8921 31.4095L34.8914 31.4107C34.7669 31.3804 34.6418 31.3512 34.5192 31.3237L34.5185 31.3249C33.6785 31.1394 32.7649 31.0326 31.961 31.042L31.9589 31.0424C31.5773 31.0442 31.2034 31.0725 30.854 31.1229L30.8528 31.1221C27.6776 31.4077 26.3827 34.3656 27.9592 37.0872C29.0333 39.4471 32.1696 41.9378 35.1472 43.4916C30.5865 42.8047 27.6521 39.854 26.4539 36.9766C24.5766 36.2531 21.3489 36.0246 19.8067 36.7279L19.0217 35.254C20.6839 34.4883 23.7729 34.5548 25.9229 35.1486C25.6273 33.3589 26.082 31.9692 27.3549 30.9451C26.9004 30.4625 26.5348 29.9113 26.2483 29.3219C23.8273 30.4964 20.6228 29.3464 19.3109 26.9124C14.0016 29.2858 10.5938 22.9913 11.0667 18.5485C8.13014 25.4842 7.24824 33.7782 7.017 41.3904C6.9978 42.181 6.72996 42.93 6.25872 43.5482C5.09668 45.0884 3.86596 46.4669 6.80378 48.7461C12.1597 52.8994 20.3154 58.6722 26.6097 59.8864C28.7914 60.3625 29.8131 58.4201 30.5595 56.6937C30.9481 55.8632 31.5711 55.1631 32.3602 54.6728C36.3397 52.1925 40.4309 49.9582 43.1807 46.7689ZM21.0533 46.6836L19.4164 45.6353L18.3764 46.8782L19.9888 47.8426L18.2258 49.9375L16.6044 48.9445L15.4727 50.2968L12.4724 48.4136L13.6209 47.1175L12.7184 46.5649L11.8166 47.5417L9.15849 45.8435L9.99166 44.8951L8.6553 44.0997L10.4831 42.0691L11.8092 42.8812L13.0532 41.5502L11.6821 40.6876L13.4869 38.7347L14.8279 39.6034L15.8565 38.4224L18.3774 40.1775L17.423 41.2402L18.3807 41.8266L20.0522 40.0051L22.7079 41.7477L21.1391 43.6091L22.7662 44.6301L21.0533 46.6836ZM24.1732 57.3881L20.2619 54.7586L25.4357 46.8057L23.3873 46.8444L23.7971 43.0736L28.0758 42.8258L32.1527 45.5567L24.1732 57.3881Z" fill="white"/>
</g>
<defs>
<clipPath id="clip0_2884_189898">
<rect width="64" height="64" fill="white" transform="translate(0.200012)"/>
</clipPath>
</defs>
</svg>
