<svg width="65" height="64" viewBox="0 0 65 64" fill="none" xmlns="http://www.w3.org/2000/svg">
<path d="M51.6309 39.1638C56.3272 35.6975 59.3797 30.1238 59.3797 23.85C59.2622 5.446 35.8409 -2.034 25.0472 12.5663C23.0631 12.496 21.0529 12.6365 19.1272 12.9838C23.0859 5.28125 31.1147 0 40.3547 0C65.4964 0.32675 73.1826 33.6195 51.2109 45.0838C51.5583 43.1594 51.7016 41.1475 51.6309 39.1638Z" fill="white"/>
<path d="M29.5234 13.0888C32.2922 10.3025 36.1247 8.575 40.3547 8.575C53.9533 8.54663 60.7128 25.2804 51.1109 34.6875C49.1521 24.1018 40.1089 15.0523 29.5234 13.0888Z" fill="white"/>
<path d="M13.1909 18.9163C17.3869 16.7479 22.2649 15.8893 26.9784 16.4788C42.3287 18.3021 51.9982 34.562 46.2346 48.9012C42.7261 57.7505 34.1098 63.9958 24.0472 64C-1.09019 63.6724 -8.78469 30.385 13.1909 18.9163ZM24.0472 59.175C34.5686 59.2457 43.1591 50.3908 43.0722 40.1499C43.2264 28.8351 32.6859 19.6345 21.5008 21.2939C18.3053 21.7252 15.3384 22.9411 12.7709 24.8363C-1.83769 35.628 5.63868 59.0579 24.0472 59.175Z" fill="white"/>
<path d="M13.2909 29.3125C16.1093 26.4976 20.0336 24.8578 24.0472 24.8738C36.5682 24.8931 43.7684 39.2237 36.3021 49.2587C33.4562 53.0541 29.0549 55.4106 24.0472 55.425C10.4507 55.4525 3.68743 38.722 13.2909 29.3125ZM18.8459 45.3512H29.2484C29.2484 42.4941 29.2484 37.7666 29.2484 34.9488C26.4448 34.9488 21.6887 34.9488 18.8459 34.9488V45.3512Z" fill="white"/>
</svg>
