<svg xmlns="http://www.w3.org/2000/svg" width="64" height="64" fill="none" xmlns:v="https://vecta.io/nano"><style><![CDATA[.B{fill:#fdbe31}.C{opacity:.25}.D{fill:#231f20}]]></style><g clip-path="url(#A)"><path d="M32 63.824C14.452 63.824.176 49.548.176 32S14.452.176 32 .176 63.824 14.452 63.824 32 49.548 63.824 32 63.824z" fill="#fcbd31"/><path d="M32 .352C49.451.352 63.648 14.549 63.648 32S49.451 63.648 32 63.648.352 49.451.352 32 14.549.352 32 .352zM32 0C14.355 0 0 14.355 0 32s14.355 32 32 32 32-14.355 32-32S49.645 0 32 0z" class="D"/><g style="mix-blend-mode:multiply" class="C B"><path d="M32 10.715c11.697 0 21.213 9.516 21.213 21.213S43.697 53.141 32 53.141s-21.213-9.516-21.213-21.213S20.303 10.715 32 10.715zm0-1.79c-12.684 0-23.003 10.319-23.003 23.002S19.316 54.93 32 54.93s23.003-10.319 23.003-23.003S44.684 8.925 32 8.925z"/></g><g style="mix-blend-mode:multiply" opacity=".38" class="B"><path d="M32 9.568c12.329 0 22.36 10.03 22.36 22.36S44.329 54.287 32 54.287 9.64 44.257 9.64 31.927 19.671 9.568 32 9.568zm0-.7c-12.715 0-23.059 10.344-23.059 23.059S19.285 54.987 32 54.987s23.06-10.344 23.06-23.06S44.715 8.868 32 8.868z"/></g><g style="mix-blend-mode:multiply" class="C B"><path d="M32 7.799c13.305 0 24.129 10.824 24.129 24.129S45.305 56.056 32 56.056 7.871 45.232 7.871 31.927 18.695 7.799 32 7.799zm0-1.877c-14.34 0-26.006 11.666-26.006 26.006S17.66 57.933 32 57.933s26.006-11.666 26.006-26.006S46.34 5.922 32 5.922z"/></g><g style="mix-blend-mode:multiply" opacity=".2" class="B"><path d="M32 7.787c13.311 0 24.14 10.829 24.14 24.14S45.311 56.068 32 56.068 7.86 45.238 7.86 31.927 18.689 7.787 32 7.787zm0-.72c-13.708 0-24.861 11.152-24.861 24.86S18.292 56.788 32 56.788s24.861-11.152 24.861-24.861S45.708 7.067 32 7.067z"/></g><g style="mix-blend-mode:multiply" opacity=".2" class="B"><path d="M32 6.782c13.766 0 24.965 11.199 24.965 24.965S45.766 56.712 32 56.712 7.035 45.513 7.035 31.747 18.234 6.782 32 6.782zm0-.54c-14.064 0-25.505 11.442-25.505 25.505S17.936 57.253 32 57.253s25.505-11.442 25.505-25.505S46.064 6.242 32 6.242z"/></g><g style="mix-blend-mode:multiply" opacity=".35" class="B"><path d="M32 7.739c13.338 0 24.188 10.851 24.188 24.188S45.338 56.116 32 56.116 7.812 45.265 7.812 31.927 18.662 7.739 32 7.739zm0-.36c-13.536 0-24.549 11.012-24.549 24.548S18.464 56.476 32 56.476s24.549-11.013 24.549-24.549S45.536 7.379 32 7.379z"/></g><g style="mix-blend-mode:multiply" opacity=".2" class="B"><path d="M32 5.207c14.734 0 26.72 11.987 26.72 26.72S46.734 58.648 32 58.648 5.28 46.661 5.28 31.927 17.267 5.207 32 5.207zm0-.797c-15.173 0-27.517 12.344-27.517 27.517S16.827 59.445 32 59.445s27.518-12.344 27.518-27.518S47.173 4.41 32 4.41z"/></g><g style="mix-blend-mode:multiply" opacity=".35" class="B"><path d="M32 5.154c14.763 0 26.773 12.01 26.773 26.773S46.763 58.701 32 58.701 5.227 46.691 5.227 31.927 17.237 5.154 32 5.154zm0-.399c-14.983 0-27.172 12.189-27.172 27.172S17.017 59.1 32 59.1 59.172 46.91 59.172 31.927 46.983 4.755 32 4.755z"/></g><g style="mix-blend-mode:multiply" opacity=".2" class="B"><path d="M32 2.543c16.203 0 29.385 13.182 29.385 29.384S48.203 61.312 32 61.312 2.615 48.13 2.615 31.927 15.797 2.543 32 2.543zm0-.904c-16.701 0-30.289 13.587-30.289 30.288S15.299 62.216 32 62.216s30.289-13.587 30.289-30.289S48.701 1.639 32 1.639z"/></g><g style="mix-blend-mode:multiply" opacity=".35" class="B"><path d="M32 2.03c16.485 0 29.897 13.412 29.897 29.897S48.485 61.825 32 61.825 2.103 48.413 2.103 31.927 15.515 2.03 32 2.03zm0-.452c-16.735 0-30.349 13.615-30.349 30.349S15.265 62.277 32 62.277s30.349-13.614 30.349-30.349S48.735 1.578 32 1.578z"/></g><g style="mix-blend-mode:multiply" opacity=".1" class="B"><path d="M32 6.731c13.893 0 25.196 11.303 25.196 25.196S45.893 57.124 32 57.124 6.804 45.821 6.804 31.927 18.107 6.731 32 6.731zm0-.36c-14.092 0-25.556 11.464-25.556 25.556S17.908 57.484 32 57.484s25.556-11.465 25.556-25.557S46.092 6.371 32 6.371z"/></g><g style="mix-blend-mode:multiply" class="C B"><path d="M32.006.928c17.096 0 31.005 13.906 31.005 30.999s-13.909 31-31.005 31-31.005-13.906-31.005-31S14.909.928 32.006.928zm0-.551C14.605.377.449 14.53.449 31.927s14.156 31.551 31.556 31.551 31.557-14.154 31.557-31.551S49.406.377 32.006.377z"/></g><g style="mix-blend-mode:multiply" class="C B"><path d="M32.006 1.554c16.751 0 30.379 13.626 30.379 30.374S48.757 62.301 32.006 62.301 1.626 48.676 1.626 31.927 15.254 1.554 32.006 1.554zm0-.18c-16.851 0-30.56 13.706-30.56 30.554s13.709 30.554 30.56 30.554 30.56-13.707 30.56-30.554S48.856 1.374 32.006 1.374z"/></g><path d="M32.001.912c-17.07 0-30.908 13.836-30.908 30.906s13.838 30.908 30.908 30.908 30.906-13.838 30.906-30.908S49.071.912 32.001.912zm0 61.291c-16.781 0-30.385-13.604-30.385-30.385S15.22 1.434 32.001 1.434s30.383 13.603 30.383 30.383-13.602 30.385-30.383 30.385z" fill="#da7515"/><path fill-rule="evenodd" d="M1.001 31.818C1.001 14.697 14.88.82 32.001.82s30.998 13.877 30.998 30.998-13.877 31-30.998 31-31-13.879-31-31zm31-30.814c-17.019 0-30.816 13.795-30.816 30.814s13.797 30.816 30.816 30.816 30.814-13.797 30.814-30.816S49.02 1.004 32.001 1.004zm0 .523c-16.73 0-30.293 13.561-30.293 30.292s13.563 30.293 30.293 30.293 30.292-13.563 30.292-30.293S48.731 1.526 32.001 1.526zM1.524 31.818c0-16.832 13.646-30.475 30.477-30.475s30.475 13.644 30.475 30.475-13.644 30.477-30.475 30.477S1.524 48.649 1.524 31.818z" class="D"/><path d="M32.001 58.46c-14.691 0-26.642-11.952-26.642-26.642S17.31 5.177 32.001 5.177s26.64 11.951 26.64 26.641S46.691 58.46 32.001 58.46zm0-52.217c-14.103 0-25.576 11.473-25.576 25.575s11.473 25.576 25.576 25.576 25.575-11.474 25.575-25.576S46.103 6.243 32.001 6.243z" fill="#a0652a"/><path d="M32.001 5.376c14.664 0 26.551 11.887 26.551 26.551S46.664 58.479 32.001 58.479 5.448 46.592 5.448 31.927 17.336 5.376 32.001 5.376zm0 52.217c14.175 0 25.664-11.49 25.664-25.666S46.175 6.262 32.001 6.262A25.67 25.67 0 0 0 6.335 31.927a25.67 25.67 0 0 0 25.666 25.666zm0-52.396c-3.609 0-7.11.707-10.406 2.101a26.64 26.64 0 0 0-8.497 5.728 26.64 26.64 0 0 0-5.729 8.497c-1.394 3.296-2.101 6.796-2.101 10.405s.707 7.11 2.101 10.406a26.64 26.64 0 0 0 5.729 8.497 26.64 26.64 0 0 0 8.497 5.729c3.296 1.394 6.797 2.101 10.406 2.101a26.56 26.56 0 0 0 10.405-2.101 26.64 26.64 0 0 0 8.496-5.729 26.64 26.64 0 0 0 5.729-8.497c1.394-3.296 2.101-6.797 2.101-10.406a26.56 26.56 0 0 0-2.101-10.405 26.64 26.64 0 0 0-5.729-8.496 26.64 26.64 0 0 0-8.496-5.728c-3.296-1.394-6.796-2.101-10.405-2.101zm0 52.217c-14.053 0-25.486-11.433-25.486-25.486S17.948 6.442 32.001 6.442s25.485 11.432 25.485 25.485-11.432 25.487-25.485 25.487z" class="D"/><path d="M32.001 55.884c-13.27 0-24.066-10.796-24.066-24.066S18.731 7.753 32.001 7.753s24.065 10.795 24.065 24.065S45.27 55.884 32.001 55.884zm0-47.195c-12.754 0-23.13 10.375-23.13 23.128s10.376 23.13 23.13 23.13 23.128-10.376 23.128-23.13S44.754 8.689 32.001 8.689z" fill="#be7b24"/><path d="M32.001 7.949c13.241 0 23.977 10.736 23.977 23.977S45.242 55.906 32.001 55.906 8.022 45.17 8.022 31.927 18.758 7.949 32.001 7.949zm0 47.195c12.822 0 23.216-10.395 23.216-23.217A23.22 23.22 0 0 0 32.001 8.711c-12.822 0-23.217 10.394-23.217 23.216s10.395 23.218 23.218 23.218zm0-47.369c-6.452 0-12.517 2.512-17.079 7.074a23.99 23.99 0 0 0-7.075 17.078c0 6.451 2.512 12.517 7.075 17.079s10.628 7.075 17.079 7.075a23.99 23.99 0 0 0 17.078-7.074c4.562-4.562 7.074-10.628 7.074-17.079a23.99 23.99 0 0 0-7.074-17.078 23.99 23.99 0 0 0-17.078-7.074zm0 47.195c-12.706 0-23.043-10.337-23.043-23.043S19.295 8.885 32.001 8.885s23.041 10.336 23.041 23.041S44.706 54.97 32.001 54.97z" class="D"/><g style="mix-blend-mode:overlay" class="C"><path d="M61.55 31.459c-.141-2.273-.574-4.524-1.003-6.756-.388-2.016-.826-4.016-1.765-5.858-.763-1.498-1.746-2.955-3.552-3.118-.239-.022-.367.204-.354.41-.301.484.029 1.236.415 1.704 1.407 1.705 2.769 3.209 3.444 5.372.662 2.121 1.142 4.418 1.367 6.627.122 1.197.089 2.376-.092 3.565-.103.675-.216 1.297.21 1.879.073.099.21.191.342.139 1.426-.567 1.063-2.768.988-3.963z" fill="#fff"/></g><g style="mix-blend-mode:overlay" class="C"><path d="M55.562 48.141c-.102-.315-.443-.472-.737-.305-1.3.739-2.16 1.871-3.088 3.026-1.076 1.34-2.215 2.175-3.664 2.87-.607.216-1.282.506-1.438.874-.428 1.009.91 1.082 1.495.968 1.929-.375 3.708-1.559 5.063-2.97.982-1.022 2.873-2.919 2.369-4.464z" fill="#fff"/></g><g fill="#000"><use href="#B"/><use href="#C"/><use href="#D"/><use href="#E"/><use href="#F"/><use href="#G"/><use href="#H"/><use href="#I"/><use href="#J"/><use href="#K"/><use href="#L"/><use href="#M"/><use href="#N"/><use href="#O"/><use href="#P"/><use href="#Q"/><use href="#R"/><use href="#S"/><use href="#T"/><use href="#U"/><use href="#V"/><use href="#W"/><use href="#X"/><use href="#Y"/><use href="#Z"/><use href="#a"/><use href="#b"/><use href="#c"/><use href="#d"/><use href="#e"/><use href="#f"/><use href="#g"/><use href="#h"/><use href="#i"/><use href="#j"/><use href="#k"/><use href="#l"/><use href="#m"/><use href="#n"/><use href="#o"/><use href="#p"/><use href="#q"/><use href="#r"/><use href="#s"/><use href="#t"/><use href="#u"/><use href="#v"/><use href="#w"/><use href="#x"/><use href="#y"/><use href="#z"/><use href="#AA"/><use href="#AB"/><use href="#AC"/><use href="#AD"/><use href="#AE"/><use href="#AF"/><use href="#AG"/><use href="#AH"/><use href="#AI"/><use href="#AJ"/><use href="#AK"/><use href="#AL"/><use href="#AM"/><use href="#AN"/><use href="#AO"/><use href="#AP"/><path d="M32.109 17.423c.11.047.13.159.166.258.004.012-.017.046-.025.046-.027 0-.069-.004-.078-.021-.045-.082-.081-.168-.121-.253l.058-.029z"/><use href="#AQ"/><path d="M15.845 7.114l-.214.196-.599.451c-.035.025-.096.015-.146.021.011-.044.008-.107.037-.128l.75-.548c.037-.026.093-.023.141-.034l.032.041zm18.874-3.687c-.034.058-.043.09-.059.095-.025.007-.067.007-.083-.009l-.386-.4a.07.07 0 0 1-.002-.068c.017-.019.064-.041.073-.033l.456.414zm-1.646-.303a.75.75 0 0 1 .43.309c.007.027-.003.076-.023.089s-.072.012-.095-.005l-.354-.274c-.018-.014-.03-.06-.021-.077.015-.025.052-.036.063-.043z"/><path d="M33.487 3.04c.091 0 .157-.02.186.004a3.25 3.25 0 0 1 .308.302c.016.018-.004.07-.008.106-.037-.007-.085 0-.108-.022l-.378-.39zm3.17-.28c.044.01.108.006.127.033a4.04 4.04 0 0 1 .228.383c.01.019-.012.078-.031.084-.025.008-.075-.008-.089-.03l-.264-.426.029-.044zm-1.327.504c-.024.008-.073.04-.088.028l-.326-.283c-.008-.008.023-.084.045-.09.085-.021.367.23.368.345zm.761-.124c-.034.056-.043.09-.059.093-.025.006-.063.002-.081-.015l-.241-.245c-.016-.018-.02-.056-.014-.082a.07.07 0 0 1 .059-.027l.335.274z"/><use href="#B"/><use href="#C"/><use href="#D"/><use href="#E"/><use href="#F"/><use href="#G"/><use href="#H"/><use href="#I"/><use href="#J"/><use href="#K"/><use href="#L"/><use href="#M"/><use href="#N"/><use href="#O"/><use href="#P"/><use href="#Q"/><use href="#R"/><use href="#S"/><use href="#T"/><use href="#U"/><use href="#V"/><use href="#W"/><use href="#X"/><use href="#Y"/><use href="#Z"/><use href="#a"/><use href="#b"/><use href="#c"/><use href="#d"/><use href="#e"/><use href="#f"/><use href="#g"/><use href="#h"/><use href="#i"/><use href="#j"/><use href="#k"/><use href="#l"/><use href="#m"/><use href="#n"/><use href="#o"/><use href="#p"/><use href="#q"/><use href="#r"/><use href="#s"/><use href="#t"/><use href="#u"/><use href="#v"/><use href="#w"/><use href="#x"/><use href="#y"/><use href="#z"/><use href="#AA"/><use href="#AB"/><use href="#AC"/><use href="#AD"/><use href="#AE"/><use href="#AF"/><use href="#AG"/><use href="#AH"/><use href="#AI"/><use href="#AJ"/><use href="#AK"/><use href="#AL"/><use href="#AM"/><use href="#AN"/><use href="#AO"/><use href="#AP"/><path d="M31.452 15.834c.116.05.138.168.176.273.005.012-.017.049-.027.049-.028 0-.073-.004-.082-.022-.048-.087-.086-.178-.128-.268l.061-.031z"/><use href="#AQ"/></g><path d="M32.001 60.801h-.035a.63.63 0 1 1 0-1.264h.045c1.797 0 3.605-.175 5.363-.521.341-.066.674.156.742.498a.63.63 0 0 1-.498.742 29.22 29.22 0 0 1-5.617.544zm-5.563-.545a.63.63 0 0 1-.124-.012 28.85 28.85 0 0 1-5.435-1.653.63.63 0 0 1-.341-.826c.134-.322.504-.474.826-.341a27.57 27.57 0 0 0 5.196 1.58.63.63 0 0 1 .496.743.63.63 0 0 1-.619.509zm16.379-1.591a.63.63 0 0 1-.584-.391.63.63 0 0 1 .343-.825 27.71 27.71 0 0 0 4.793-2.558.63.63 0 0 1 .702 1.051 28.96 28.96 0 0 1-5.012 2.675.63.63 0 0 1-.241.048zm-26.591-2.654a.63.63 0 0 1-.351-.107c-1.572-1.054-3.047-2.269-4.386-3.61a.63.63 0 1 1 .894-.893 27.9 27.9 0 0 0 4.195 3.453.63.63 0 0 1-.353 1.157zm35.792-3.484a.63.63 0 0 1-.446-1.079 27.91 27.91 0 0 0 3.455-4.193.63.63 0 1 1 1.049.704 29.17 29.17 0 0 1-3.612 4.384.63.63 0 0 1-.446.184zM8.412 48.183a.63.63 0 0 1-.526-.281c-1.054-1.577-1.955-3.263-2.678-5.01a.63.63 0 0 1 1.168-.483c.691 1.671 1.553 3.283 2.561 4.792a.63.63 0 0 1-.525.983zm49.77-4.839a.63.63 0 0 1-.583-.875 27.58 27.58 0 0 0 1.583-5.196.63.63 0 0 1 1.239.247 28.85 28.85 0 0 1-1.656 5.434.63.63 0 0 1-.583.389zM4.185 37.963a.63.63 0 0 1-.619-.51c-.363-1.844-.548-3.74-.548-5.636a.64.64 0 0 1 .632-.64c.349 0 .632.275.632.624v.016c0 1.814.176 3.628.524 5.391a.63.63 0 0 1-.498.742c-.041.008-.082.012-.123.012zM60.35 32.5a.63.63 0 0 1-.632-.632v-.051a27.94 27.94 0 0 0-.517-5.358.63.63 0 1 1 1.24-.243c.359 1.833.541 3.717.541 5.601v.051a.63.63 0 0 1-.632.632zM4.193 26.904a.63.63 0 0 1-.62-.755 28.84 28.84 0 0 1 1.65-5.436.63.63 0 1 1 1.167.485c-.694 1.672-1.225 3.421-1.577 5.197a.63.63 0 0 1-.619.509zm54.028-5.254a.63.63 0 0 1-.584-.391 27.72 27.72 0 0 0-2.555-4.794.63.63 0 0 1 1.051-.701 28.98 28.98 0 0 1 2.672 5.013.63.63 0 0 1-.343.825c-.079.033-.16.048-.241.048zM8.43 16.69a.63.63 0 0 1-.524-.984c1.053-1.572 2.267-3.048 3.607-4.388a.63.63 0 1 1 .893.894c-1.282 1.281-2.443 2.694-3.451 4.197a.63.63 0 0 1-.525.28zm43.658-4.245a.63.63 0 0 1-.448-.186c-1.28-1.285-2.69-2.448-4.191-3.458a.63.63 0 0 1 .705-1.049c1.57 1.056 3.044 2.272 4.382 3.615a.63.63 0 0 1-.448 1.078zM16.255 8.871a.63.63 0 0 1-.352-1.157 28.97 28.97 0 0 1 5.009-2.681.63.63 0 1 1 .484 1.167c-1.671.692-3.283 1.555-4.79 2.564a.63.63 0 0 1-.351.107zm26.654-2.596a.63.63 0 0 1-.243-.049 27.59 27.59 0 0 0-5.195-1.586.63.63 0 1 1 .248-1.239 28.85 28.85 0 0 1 5.433 1.659.63.63 0 0 1 .34.826.63.63 0 0 1-.583.389zM26.471 4.639a.63.63 0 0 1-.619-.509.63.63 0 0 1 .497-.742c1.849-.365 3.751-.551 5.652-.551h.069a.63.63 0 1 1-.006 1.264h-.06c-1.822 0-3.641.177-5.41.527a.64.64 0 0 1-.123.012z" fill="#c3560f" stroke="#231f20" stroke-width=".115" stroke-miterlimit="10"/><g style="mix-blend-mode:overlay" fill="#fff" class="C"><path d="M17.013 54.565c-1.619-.846-2.975-2.099-4.217-3.421-1.172-1.247-2.53-2.56-3.286-4.111-.399-.819-.616-1.714-1.025-2.529-.195-.39-.453-.728-.689-1.091-.283-.435-.334-.902-.535-1.366-.32-.739-1.152-1.094-1.828-.785-.055-.028-.12-.036-.183-.001-1.029.575-.065 2.103.267 2.832.785 1.72 1.659 3.457 2.657 5.065.893 1.438 2.207 2.486 3.384 3.675 1.237 1.249 2.392 2.643 4.004 3.427.711.346 2.608 1.067 3.216.173.707-1.041-1.222-1.585-1.765-1.868zm6.611-6.233c4.366 1.701 8.786 3.805 13.292 1.835 1.007-.44.804-2.215-.017-2.455-.159-1.598-2.183-2.501-3.485-2.572-2.452-.133-5.152 2.287-7.194.655-.344-.275-3.325-1.635-5.339-2.202-.221-.062-.471-.01-.631.212-1.853 2.573 2.068 4.017 3.374 4.526zm15.878-34.25c-4.699-1.44-9.457-3.222-14.306-1.554-1.084.373-.866 1.876.018 2.079.171 1.353 2.35 2.118 3.751 2.177 2.639.112 3.587.622 5.785 2.004.37.233.762.525 1.195.606.451.085.904-.005 1.328-.134 1.78-.542 3.014-1.646 5.182-1.166.238.053.507.009.68-.18 1.994-2.178-2.226-3.402-3.631-3.832zM31.05 52.869a24.15 24.15 0 0 1-7.289-2.656c-2.445-1.369-4.526-3.235-6.537-5.166-.189-.182-.459.125-.269.306 2.039 1.946 4.155 3.833 6.633 5.205 2.298 1.272 4.843 2.058 7.445 2.392.053.007.071-.072.017-.082zm-9.849 1.369a25.32 25.32 0 0 1-6.37-5.049c-1.978-2.169-3.431-4.712-4.793-7.296-.128-.243-.497-.027-.369.215 1.384 2.608 2.864 5.184 4.875 7.367 1.864 2.024 4.135 3.646 6.611 4.838.05.024.094-.048.044-.076zM5.978 24.118c.011-.078-.005-.141-.031-.198-.002-.137-.02-.266-.078-.371-.731-1.314-2.063 1.585-2.227 1.932-.854 1.813-.656 3.866-.662 5.818 0 .117.1.22.196.268 1.186.6 1.745-.802 1.943-1.723.403-1.882.579-3.824.859-5.727zM49.792 9.174c-.936-1.161-2.145-2.123-3.293-3.065-.785-.645-1.626-1.482-2.634-1.742-.094-.024-.164.119-.069.164 2.256 1.045 3.831 3.366 5.703 4.936.206.173.46-.086.293-.293zm-17.761-5.84c-.356-.691-1.673-.676-2.309-.737-1.589-.152-3.211.021-4.777.299-1.78.316-3.559.874-4.849 2.074-.814.494-1.539 1.138-1.663 1.999-.03.212.08.366.296.389 1.437.149 2.603-.598 3.882-1.165 1.919-.851 3.751-1.326 5.857-1.424.552-.026 4.505.394 3.563-1.434z"/></g><use href="#AR" fill="#c3560f"/><g fill="#80380a"><path d="M30.098 43.923c-.103-.032-.216-.059-.336-.08l.021.206a3.15 3.15 0 0 1 .554.114 1.48 1.48 0 0 1 .367.162.65.65 0 0 0-.113-.144c-.124-.115-.292-.196-.492-.257zm9.112-10.41c.296-.43.555-.888.774-1.368.515-1.134.801-2.396.801-3.723a8.88 8.88 0 0 0-.099-1.333 9 9 0 0 0-2.319-4.813l-.118-.125-.16-.161-.06-.058.099.105a9 9 0 0 1 2.319 4.81c.065.437.099.883.099 1.336a9 9 0 0 1-.801 3.723 8.91 8.91 0 0 1-.774 1.368 9.02 9.02 0 0 1-4.569 3.456 8.72 8.72 0 0 1-1.528.369c-.438.067-.888.1-1.344.1-.466 0-.925-.036-1.372-.104-.526-.079-1.035-.206-1.526-.373a8.99 8.99 0 0 1-3.348-2.039c.986 1.022 2.212 1.813 3.587 2.278a8.82 8.82 0 0 0 1.526.373c.447.068.906.104 1.372.104a8.92 8.92 0 0 0 1.344-.1 8.71 8.71 0 0 0 1.528-.369c1.874-.627 3.474-1.856 4.569-3.456zm-19.423 3.023l-.029.056a14.55 14.55 0 0 0 1.61 1.886c-.58-.6-1.11-1.249-1.58-1.942zm-3.439 6.762c-.036-.157-.04-.33-.028-.498-.198-.719-.17-1.352.063-1.849a1.76 1.76 0 0 1 .609-.717l-.074-.483c-.006-.032.006-.064.026-.088 0 0 .099-.1.291-.191a1.47 1.47 0 0 1 .177-.071c.182-1.738.685-3.186 1.514-4.31a14.4 14.4 0 0 1-1.626-6.67 14.47 14.47 0 0 1 14.47-14.469 14.42 14.42 0 0 1 10.11 4.119c-2.627-2.689-6.293-4.359-10.35-4.359-7.992 0-14.47 6.478-14.47 14.47 0 2.406.587 4.675 1.627 6.67-.829 1.124-1.331 2.572-1.514 4.31a1.46 1.46 0 0 0-.177.071c-.192.09-.291.191-.291.191-.021.024-.032.056-.027.088l.074.483a1.76 1.76 0 0 0-.609.716c-.232.497-.26 1.13-.063 1.849a1.69 1.69 0 0 0 .028.498c.054.235.188.405.35.507-.049-.077-.087-.167-.111-.268zm27.282.054c-.129-.597-.185-1.096-.185-1.656 0-.401.11-.804.348-1.128.117-.161.269-.3.449-.409l-.063-.408a.11.11 0 0 1 .028-.088s.097-.1.291-.191l.106-.045c-.124-1.167-.41-2.122-.853-2.892l-.066.092c.344.708.572 1.555.679 2.561l-.106.044c-.193.09-.291.191-.291.191a.11.11 0 0 0-.028.088l.063.408c-.181.108-.333.248-.449.409-.238.324-.348.728-.348 1.128 0 .559.056 1.059.185 1.656a.74.74 0 0 0 .339.489.81.81 0 0 1-.1-.25zm-19.726 5.5a5.9 5.9 0 0 1 .095-1.096c0-.007.001-.014.003-.021v-.001c.075-.404.204-.811.416-1.178.317-.552.829-1.007 1.61-1.191.008-.004.014-.005.021-.007l.036-.007a.79.79 0 0 1 .099-.02l.102-.017.163-.019.15-.013c.017-.001.033-.003.05-.001l.067-.003.068-.003c-.107-.11-.171-.252-.171-.412a.6.6 0 0 1 .2-.444 1.24 1.24 0 0 1 .491-.257 3.95 3.95 0 0 1 .902-.148l-.088-1.587-.236-.067.085 1.415c-.341.022-.648.068-.902.148-.2.061-.367.142-.491.257a.6.6 0 0 0-.2.444c0 .16.064.302.171.412l-.068.003-.067.003c-.017-.001-.033 0-.05.001l-.15.013-.163.02-.102.017a.79.79 0 0 0-.099.02c-.012.001-.024.004-.036.007l-.021.007a2.44 2.44 0 0 0-1.61 1.191c-.212.367-.341.775-.416 1.178v.001c-.001.007-.003.014-.003.021a5.99 5.99 0 0 0-.095 1.096c0 .022.008.046.021.064a1.63 1.63 0 0 0 .235.23c-.009-.017-.016-.036-.016-.055zm8.758-.876c-.012-.017-.02-.035-.021-.056l-.044-1.191c.011-.611.075-1.023.107-1.401-.138-.118-.224-.278-.224-.465a.6.6 0 0 1 .199-.444c.124-.115.292-.196.491-.257a3.15 3.15 0 0 1 .554-.114l.093-1.3-.25.031-.083 1.029a3.16 3.16 0 0 0-.554.114c-.199.061-.367.142-.491.257a.6.6 0 0 0-.199.444c0 .187.086.346.224.465l-.107 1.401c-.006.33.004.718.044 1.191.001.021.008.039.021.056.173.228.361.432.56.617l-.32-.377zm4.199-2.695c.017-.001.033 0 .05.001l.15.013.163.019.102.017a.79.79 0 0 1 .099.02c.013.001.024.004.036.007l.021.007a2.48 2.48 0 0 1 1.092.556c-.314-.368-.748-.658-1.331-.795-.008-.004-.015-.006-.021-.007l-.036-.007a.77.77 0 0 0-.099-.02l-.102-.017-.124-.015c-.029.08-.074.153-.135.215l.068.003.067.003zm8.012-1.595c-.001.011.005.014.011.017l-.011-.017zm-8.906.237c-.187-.059-.404-.099-.642-.125l-.02.217c.341.022.648.068.902.148a1.5 1.5 0 0 1 .366.163.66.66 0 0 0-.114-.145c-.124-.116-.292-.196-.491-.257zm-.369-16.883c.749.789.966 2.144.306 3.031-.283.035-.585.197-.784.322a1.75 1.75 0 0 0-.37.306 3.54 3.54 0 0 1-1.037.071c-.36-.02-.701-.101-.96-.323.268.288.645.389 1.048.411.331.018.699.012 1.037-.072.101-.113.223-.214.37-.306.199-.125.501-.287.784-.322.685-.921.426-2.346-.394-3.119zm-5.497-.069a2.2 2.2 0 0 1 .378.547c.199.407.292.873.327 1.322s.014.928-.228 1.326c-.269.442-.725.579-1.218.605-.336.018-.711.012-1.054-.071l.087.088c.343.084.718.09 1.055.071.493-.027.949-.163 1.218-.606.242-.397.263-.874.228-1.326s-.128-.915-.327-1.322a2.17 2.17 0 0 0-.466-.635zm3.75 2.396c.083.013.148-.089.166-.161.012-.047.019-.105.014-.148a.28.28 0 0 0-.012-.05l-.01-.02c-.002-.003-.012-.017-.013-.02l-.022-.023a.15.15 0 0 0-.032-.02c-.003.022 0 .033.002.044.005.043-.001.101-.014.148-.016.059-.062.138-.124.157 0 .007-.001.013-.001.02.002.034.013.067.047.072zm-.515.103c.137-.005.228-.125.28-.24.047-.104.096-.277.044-.387-.022-.047-.055-.097-.104-.118l.016.03c.051.109.002.283-.044.387-.052.114-.144.234-.28.24a.22.22 0 0 1-.12-.028.22.22 0 0 0 .208.116z"/><path d="M34.125 28.299c-.153-.097-.359-.131-.538-.114a.92.92 0 0 0-.739.529.97.97 0 0 0-.087.752.93.93 0 0 0 .275.418c-.084-.096-.149-.208-.187-.33-.076-.248-.04-.526.087-.752a.92.92 0 0 1 .739-.529c.179-.017.385.017.538.114.028.018.052.039.077.059-.047-.056-.1-.107-.165-.147zm-4.478 1.068c.083.013.148-.089.167-.161.012-.047.019-.105.014-.148a.28.28 0 0 0-.012-.05l-.01-.02-.013-.02-.022-.023a.15.15 0 0 0-.032-.02c-.003.022 0 .033.002.044.005.043-.002.101-.014.148-.015.059-.062.138-.124.157 0 .007-.001.013-.001.02.002.034.013.067.047.072zm-.294-.642l.016.03c.051.109.002.283-.044.387-.052.114-.143.234-.28.24a.22.22 0 0 1-.12-.028.22.22 0 0 0 .208.116c.137-.005.228-.125.28-.24.047-.104.096-.277.044-.387-.022-.047-.055-.097-.104-.118zm-.687 2.847l-.044-.043.038.04z"/><path d="M29.922 28.299c-.153-.097-.36-.131-.538-.114a.92.92 0 0 0-.739.529.97.97 0 0 0-.087.752.93.93 0 0 0 .275.418c-.084-.096-.149-.208-.187-.33-.076-.248-.04-.526.087-.752a.92.92 0 0 1 .739-.529c.179-.017.385.017.538.114.028.018.052.039.077.059-.047-.056-.1-.107-.165-.147zm-1.904 2.182a1.85 1.85 0 0 1 .285.215c-.102-.111-.225-.212-.373-.303-.195-.121-.489-.275-.767-.317l.058.083c.288.035.595.197.797.322zm8.356 1.356a1.11 1.11 0 0 0-.131-.126c-.053-.043-.109-.087-.169-.12a.59.59 0 0 0-.209-.062c-.122-.016-.238-.018-.345.05-.038.024-.048.078-.014.111l.043.043c.01.009.021.017.032.024-.015-.032-.005-.072.027-.091.107-.068.223-.067.345-.05.073.01.143.027.209.062s.116.078.169.12l.044.038zm-9.737.233a.89.89 0 0 1 .232-.271c.053-.043.109-.087.169-.12a.6.6 0 0 1 .209-.062c.101-.014.199-.014.29.024 0-.024-.011-.048-.033-.062-.107-.068-.223-.067-.345-.05a.59.59 0 0 0-.209.062c-.06.033-.116.078-.169.12a.89.89 0 0 0-.232.271c-.056.107-.116.256-.06.372l.001.002c.014.038.046.063.082.071-.045-.114.011-.255.065-.357z"/><path d="M27.25 32.534c-.081-.096-.165-.195-.231-.303l-.015.015.158.199a3.46 3.46 0 0 0 .229.241l-.141-.153zm-.607-2.335c-.034.031-.03.087 0 .119.021.023.046.04.07.058-.011-.03-.007-.067.018-.089a.5.5 0 0 1 .134-.086c-.607-.671-.589-1.796-.233-2.619.403-.933 1.282-1.61 2.319-1.616.607-.004 1.124.24 1.525.623-.412-.434-.961-.715-1.613-.711-1.037.006-1.916.684-2.319 1.616-.356.824-.373 1.948.233 2.619-.048.021-.093.049-.134.086zm9.658 2.163l-.047-.053-.074-.077c.01.015.021.027.032.041s.011.014-.001-.002c.016.021.028.036.046.053l.044.039zm-6.183 2.571c.053.016.105.015.159.026l.158.036.31.06c.359.061.752.072 1.125.054l.628-.041.302-.01c.076-.002.171-.013.25.007.002-.027-.007-.054-.034-.069-.084-.048-.211-.028-.305-.025l-.302.01-.628.041c-.373.018-.765.006-1.125-.055l-.31-.06-.158-.036c-.054-.011-.106-.01-.159-.026-.041-.013-.081.047-.044.076.031.025.056.052.083.079-.022-.031.011-.079.049-.068zm-2.293-10.258a.49.49 0 0 1-.102-.198c-.058-.246.099-.491.28-.667.3-.293.691-.491 1.104-.566.36-.066.784-.11 1.08.14l-.053-.061c-.296-.284-.741-.235-1.115-.167-.412.075-.803.272-1.104.566-.18.176-.337.421-.279.667.027.114.098.211.189.286z"/><path d="M36.303 32.363h0zm.103-2.128c-.003-.013-.009-.026-.02-.036s-.018-.013-.026-.02l-.017.022a.5.5 0 0 1 .063.035zm-2.004 1.334a1.22 1.22 0 0 1 .086-.09 1.96 1.96 0 0 1 .075-.241l-.128.032c-.028.088-.052.178-.07.277-.004.02.021.04.037.022zm-3.659 2.162l-.115-.011-.062-.007-.026-.003c-.048-.002-.084-.012-.115-.017l-.131-.023-.235-.049-.479-.135-.234-.084-.108-.043-.033-.013-.052-.022-.447-.219-.418-.253-.203-.143-.05-.037-.033-.026-.083-.066-.405-.356.073.074c.134.131.275.252.42.37l.083.066.033.026.05.037.203.143.418.253.447.219.041.018.044.018.108.043.234.084.479.135.235.049.131.023c.031.005.067.015.1.016l.041.004.062.007.115.011.248.015h1.04l.248-.015.115-.011.062-.007.026-.003c.048-.002.084-.012.115-.017l.131-.023.235-.049.479-.135.234-.084.108-.043.033-.014.052-.023.447-.219.418-.253.203-.143.05-.037.033-.026.083-.066.42-.37.287-.286-.071-.053c-.006-.005-.039-.026-.014-.012s-.006-.004-.011-.008c-.099.085-.188.182-.279.271-.134.131-.275.252-.42.37l-.083.066-.033.026-.05.037-.203.143-.418.253-.447.219-.041.018-.044.018-.107.042-.234.084-.479.135-.235.049-.131.023c-.031.005-.067.015-.1.016l-.041.004-.062.007-.115.011-.248.015h-1.04l-.248-.015zm1.589-2.948c-.684-.762-.572-2.065-.28-2.971.327-1.017 1.135-1.853 2.24-1.847.625.004 1.191.261 1.627.673-.447-.463-1.047-.757-1.715-.761-1.105-.007-1.912.83-2.24 1.847-.304.943-.411 2.314.368 3.059zm.414-5.989a.53.53 0 0 1-.051-.073c-.124-.211-.108-.477-.044-.714.06-.221.16-.437.326-.595.296-.284.741-.235 1.115-.167a2.14 2.14 0 0 1 1.075.54l-.06-.062c-.3-.293-.691-.491-1.104-.566-.374-.068-.819-.117-1.115.167-.166.159-.266.374-.326.596-.064.236-.081.503.044.713a.65.65 0 0 0 .139.161z"/></g><use href="#AR" stroke="#101010" stroke-width=".043" stroke-linejoin="round"/></g><defs><clipPath id="A"><path fill="#fff" d="M0 0h64v64H0z"/></clipPath><path id="B" d="M61.107 38.433c-.006.083.002.169-.019.248-.233.88-.508 1.746-.894 2.572l-.622 1.323c-.04.083-.107.153-.162.229l-.067-.036c.032-.099.056-.203.099-.298l.635-1.383c.38-.803.61-1.658.884-2.498.02-.06.054-.116.081-.174l.065.015z"/><path id="C" d="M61.37 36.924l.131-.796.209-1.291c.007-.04.047-.074.072-.111.02.04.061.082.058.12-.052.65-.128 1.297-.332 1.92-.019.06-.055.114-.083.171l-.054-.013z"/><path id="D" d="M41.71 50.804c-.012-.024-.05-.063-.042-.088s.057-.049.092-.06.07-.004.104-.002l.899.058c.053.004.102.054.152.083-.048.029-.097.083-.144.082l-.943-.039c-.034-.002-.067-.018-.119-.033z"/><path id="E" d="M39.926 51.621c.079-.003.162-.022.237-.006l.86.211c.042.011.073.065.11.099-.043.018-.09.058-.128.05l-.963-.215c-.046-.011-.084-.06-.125-.092l.009-.047z"/><path id="F" d="M40.767 51.131c.117-.001.204-.015.285.001l.806.177c.04.01.072.055.107.084-.029.023-.057.065-.087.066-.367.012-.715-.068-1.042-.233-.018-.009-.028-.037-.069-.096z"/><path id="G" d="M43.843 50.332c-.037.014-.073.038-.11.039l-.886.026c-.045 0-.091-.058-.136-.089.045-.03.09-.085.137-.086l.903-.003c.039.001.077.045.116.069l-.023.044z"/><path id="H" d="M39.008 51.994c.213-.074 1.035.18 1.07.323-.221.086-.954-.13-1.07-.323z"/><path id="I" d="M11.254 29.47l.48-.052c.026-.002.054.034.081.053-.019.026-.035.069-.059.075l-.47.086c-.025.004-.075-.03-.078-.051-.004-.03.025-.065.045-.111z"/><path id="J" d="M11.262 30.087c.182-.086.356-.07.527-.057.01.001.035.099.016.122-.057.07-.43.069-.501.007-.014-.012-.02-.033-.043-.072z"/><path id="K" d="M11.311 31.223l.456.051c.018.003.046.051.041.069-.008.028-.042.068-.065.068-.134-.001-.269-.007-.403-.023-.027-.003-.054-.053-.07-.087-.006-.012.019-.039.041-.08z"/><path id="L" d="M11.352 30.639l.353-.076c.032-.004.07.037.105.058-.025.033-.043.084-.076.096-.103.036-.21.063-.318.082-.035.006-.077-.026-.115-.04l.05-.119z"/><path id="M" d="M11.67 32.099c-.029.031-.056.086-.086.087a2.44 2.44 0 0 1-.355-.015c-.025-.003-.056-.041-.065-.069-.005-.016.028-.064.044-.064l.411.013c.011.001.022.019.052.048z"/><path id="N" d="M11.468 32.993l-.397-.029c-.016-.002-.045-.041-.041-.052.012-.029.037-.074.059-.075.123-.007.248-.007.371-.001.019.001.049.039.052.063s-.022.05-.045.095z"/><path id="O" d="M11.6 33.892c-.073.098-.366.176-.45.118-.021-.014-.028-.092-.009-.113.063-.07.356-.07.46-.005z"/><path id="P" d="M11.042 35.169l.358-.036c.054-.001.114.039.054.11-.075.088-.336.073-.412-.074z"/><path id="Q" d="M20.734 13.049c.063-.057.118-.129.19-.169l1.695-.915c1.329-.6 2.693-1.108 4.135-1.375l.704-.097.017.055c-.047.022-.091.052-.14.065l-.959.236c-1.859.455-3.627 1.139-5.286 2.098l-.311.165-.046-.062z"/><path id="R" d="M29.719 10.294c.059-.015.118-.036.178-.043 1.762-.2 3.49.01 5.201.429l.356.087c.045.015.077.07.114.107-.051.017-.106.057-.151.048l-1.028-.226c-1.183-.258-2.374-.432-3.59-.369l-.891.058c-.061.003-.123-.017-.185-.026l-.004-.066z"/><path id="S" d="M4.148 27.064c.004-.074-.002-.15.013-.222.235-1.098.572-2.165.979-3.211l.146-.38c.017-.042.04-.082.061-.123l.042.01c0 .055.013.113-.002.163l-.185.526c-.37.969-.655 1.963-.884 2.973-.022.096-.065.186-.098.279l-.073-.016z"/><path id="T" d="M47.755 45.927c.047-.067.086-.143.143-.2.617-.613 1.156-1.288 1.608-2.03.163-.266.298-.549.447-.824l.097-.163.055.02c-.006.056 0 .118-.021.168-.091.209-.171.426-.289.619-.508.831-1.074 1.619-1.779 2.299-.064.062-.141.111-.212.166l-.049-.054z"/><path id="U" d="M21.839 51.258c-.115-.029-.24-.039-.343-.092l-1.771-.938c-.009-.005-.018-.012-.026-.019-.064-.057-.17-.098-.11-.209.006-.012.134.031.197.064l1.651.893.427.228-.026.072z"/><path id="V" d="M18.751 49.464c-.056-.023-.125-.033-.166-.072l-.762-.741c-.029-.029-.058-.068-.066-.107s.006-.087.011-.13c.037.011.086.012.111.036l.828.832c.037.038.054.096.08.145l-.036.037z"/><path id="W" d="M39.701 12.418c-.05-.054-.107-.104-.15-.164l-.599-.843c-.021-.03-.045-.061-.055-.096-.007-.027-.003-.077.012-.085.026-.014.074-.016.098 0 .039.024.072.063.099.102l.586.851c.038.056.05.13.073.195l-.064.04z"/><path id="X" d="M39.91 11.534c.054.031.131.05.157.096l.574 1.061c.011.02.001.05-.036.104-.043-.041-.097-.076-.125-.125l-.309-.576-.229-.363c-.029-.047-.05-.099-.075-.149l.043-.049z"/><path id="Y" d="M40.964 12.09c.048.032.111.055.14.099l.522.854c.025.043-.008.119-.014.18-.046-.036-.107-.062-.136-.108l-.497-.814c-.031-.053-.043-.116-.064-.175l.05-.035z"/><path id="Z" d="M56.429 29.928l.087-.212.448-.849c.018-.034.059-.056.089-.084.017.033.056.072.048.097-.117.382-.29.735-.573 1.024-.009.009-.028.007-.099.024z"/><path id="a" d="M38.714 11.724c-.036.015-.075.045-.113.043-.03-.002-.06-.039-.087-.064l-.608-.585c-.03-.03-.032-.087-.047-.131.044-.003.107-.027.129-.006l.701.668c.01.01.01.029.025.076z"/><path id="b" d="M56.452 28.803c-.011-.143.43-.968.544-1.018.072.176-.366.996-.544 1.018z"/><path id="c" d="M42.193 12.653c.167.134.456 1.024.388 1.171-.143-.065-.471-1.037-.388-1.171z"/><path id="d" d="M24.732 52.434c-.062.008-.12.035-.147.016-.069-.047-.13-.109-.183-.175l-.355-.47c-.021-.031.003-.093.006-.141.042.012.101.011.125.039l.5.621c.016.02.024.047.055.11z"/><path id="e" d="M30.261 53.393c-.042.01-.079.031-.11.025-.279-.05-.514-.189-.724-.372-.021-.019-.034-.073-.022-.098s.07-.053.088-.043l.762.435c.005.003.003.02.007.052z"/><path id="f" d="M6.179 21.182l-.554 1.14c-.107-.22.313-1.068.554-1.14z"/><path id="g" d="M57.051 30.269c-.012.042-.015.073-.028.099l-.352.646c-.02.034-.079.045-.12.067-.001-.049-.02-.108-.001-.147l.357-.679c.015-.028.058-.052.09-.055.017-.002.038.048.054.069z"/><path id="h" d="M50.865 40.799c.057.336-.184.973-.405 1.077.009-.073.008-.135.025-.19l.249-.771c.015-.042.075-.068.13-.116z"/><path id="i" d="M43.663 14.186l-.077.126c-.032-.022-.081-.038-.092-.067l-.258-.77c-.011-.035.023-.083.036-.125.035.018.09.027.101.054l.289.782z"/><path id="j" d="M28.684 53.27c-.052.012-.115.048-.141.03l-.615-.445c-.02-.015-.026-.076-.012-.098s.076-.04.094-.027l.641.464c.011.008.013.028.033.076z"/><path id="k" d="M26.965 52.559c.091.053.132.069.162.095l.433.399c.033.033.035.098.052.148-.049 0-.115.02-.145-.004l-.485-.431c-.03-.03-.01-.11-.016-.208z"/><path id="l" d="M26.688 52.851c-.083 0-.147.02-.183-.004-.11-.073-.213-.159-.313-.246-.088-.077-.172-.159-.247-.248-.023-.028-.01-.086-.014-.13.043.006.098-.003.126.021l.555.479c.022.02.032.053.075.128z"/><path id="m" d="M44.242 14.051c.025.038.06.073.073.115l.192.687c.012.048-.029.109-.046.164-.039-.043-.098-.081-.114-.132l-.175-.643c-.014-.057-.002-.121-.002-.181l.071-.01z"/><path id="n" d="M56.349 27.93c.006-.061 0-.126.02-.181l.23-.554c.019-.041.074-.066.113-.099.009.049.037.104.023.146l-.207.546c-.027.062-.09.108-.136.161l-.043-.019z"/><path id="o" d="M23.907 52.019c-.011.017-.022.054-.045.063s-.071.004-.086-.014l-.482-.588c-.016-.02-.01-.079.009-.098s.081-.019.096-.002l.496.596c.006.008.006.02.012.043z"/><path id="p" d="M57.054 31.37c.08.18-.278.735-.526.817.133-.326.34-.565.526-.817z"/><path id="q" d="M4.298 28.536c-.02.039-.033.077-.057.108l-.352.447c-.029.034-.089.04-.135.058.005-.05-.009-.113.017-.147l.382-.48c.021-.026.065-.037.101-.044.01-.002.027.035.044.058z"/><path id="r" d="M25.087 52.075c.028.012.051.015.066.028l.449.401c.025.024.017.084.024.127-.043-.006-.098.004-.128-.019l-.428-.355c-.031-.028-.033-.093-.038-.141-.001-.012.037-.028.054-.041z"/><path id="s" d="M3.693 31.009c-.01-.04-.037-.086-.024-.109l.327-.536c.012-.018.057-.031.077-.023s.042.056.034.07l-.349.571c-.006.01-.026.011-.065.027z"/><path id="t" d="M4.186 29.498l-.129.206-.271.341c-.02.023-.068.023-.103.033-.005-.028-.025-.066-.014-.082l.399-.523c.012-.015.054-.007.082-.009l.036.034z"/><path id="u" d="M3.778 31.819c.016-.212.115-.365.215-.517.01-.015.052-.027.064-.018.021.014.041.045.044.07.013.107-.181.399-.323.465z"/><path id="v" d="M14.142 41.687c.059.013.078.011.088.02.023.021.047.044.061.072.612 1.185 1.484 2.185 2.34 3.196l-.05.049c-.066-.045-.141-.082-.198-.138-.883-.872-1.618-1.854-2.186-2.958-.034-.065-.034-.147-.055-.24z"/><path id="w" d="M47.083 19.881c.04.02.089.03.119.06.739.721 1.292 1.559 1.609 2.547.001.004-.002.01-.013.055-.088-.131-.173-.233-.232-.348-.388-.761-.825-1.487-1.42-2.109-.044-.046-.069-.109-.104-.164l.041-.04z"/><path id="x" d="M49.843 25.847c-.027-.069-.065-.135-.079-.206-.113-.559-.246-1.111-.517-1.619-.04-.075-.087-.147-.118-.226-.014-.036.002-.084.005-.126.042.014.092.018.124.044s.057.076.08.117c.318.569.499 1.182.577 1.827.007.057-.012.117-.019.176l-.052.011z"/><path id="y" d="M44.271 45.781c.059-.033.108-.074.164-.088l1.083-.255c.041-.009.092.026.139.04-.019.035-.031.092-.059.101-.418.138-.839.264-1.287.236-.008-.001-.015-.012-.041-.034z"/><path id="z" d="M48.022 42.801c-.041.042-.075.101-.125.122l-.828.326c-.037.014-.096-.032-.145-.05.031-.038.053-.095.093-.111l.829-.326c.045-.017.099-.008.149-.012l.026.05z"/><path id="AA" d="M47.633 42.363l-.124-.076c.023-.037.038-.095.07-.108l.879-.323c.035-.012.085.019.128.03-.02.038-.031.099-.062.112l-.891.365z"/><path id="AB" d="M17.274 19.052c-.085.046-.126.078-.172.092l-.857.231c-.037.009-.084-.018-.126-.028.019-.039.03-.105.057-.112l.966-.232c.024-.006.056.02.132.049z"/><path id="AC" d="M18.573 17.387l.172.067c-.062.037-.12.095-.187.107l-.774.106c-.049.005-.103-.039-.155-.061.041-.035.079-.092.124-.1l.819-.119z"/><path id="AD" d="M47.877 41.587c.086-.064.128-.11.18-.131l.756-.292a.34.34 0 0 1 .123-.027c.026.001.065.022.074.044s-.017.065-.037.073l-.929.367c-.03.011-.075-.014-.166-.035z"/><path id="AE" d="M17.816 18.347c-.048.026-.093.064-.144.074l-.799.144c-.039.006-.084-.024-.126-.037.028-.04.05-.108.084-.114l.877-.145c.031-.005.067.022.101.033l.008.044z"/><path id="AF" d="M19.654 16.911c-.055.023-.108.062-.165.067l-.824.046c-.039.001-.079-.046-.118-.071.033-.029.065-.083.1-.085l.919-.037c.027-.001.055.024.082.038l.005.043z"/><path id="AG" d="M29.217 49.788c-.061-.032-.133-.054-.182-.099l-.452-.445c-.034-.037-.031-.109-.044-.165.056.013.128.009.166.042.146.129.287.266.42.41.056.061.087.146.13.22l-.037.036z"/><path id="AH" d="M48.185 40.988c.075-.061.116-.109.168-.135l.634-.292c.037-.016.087-.001.13-.001-.008.039-.005.102-.027.113l-.785.356c-.017.007-.047-.015-.12-.041z"/><path id="AI" d="M16.641 19.634c-.058.023-.114.059-.175.068l-.675.088c-.047.005-.098-.032-.148-.05.034-.038.065-.104.104-.11l.77-.089c.037-.004.076.022.115.034l.009.059z"/><path id="AJ" d="M46.307 43.986c.035-.033.056-.069.087-.08l.704-.253c.031-.01.077.014.11.034.008.004-.004.06-.02.082-.087.118-.691.308-.829.264-.013-.004-.023-.02-.051-.047z"/><path id="AK" d="M16.029 20.118c-.068.048-.105.087-.15.104l-.599.204c-.036.011-.084-.018-.126-.028.014-.037.019-.098.042-.106l.719-.231c.02-.006.052.025.115.058z"/><path id="AL" d="M37.943 49.334c.048-.128.086-.261.147-.382.052-.102.127-.193.202-.281.02-.024.078-.024.116-.019a.09.09 0 0 1 .029.076l-.402.649-.092-.044z"/><path id="AM" d="M45.57 45.016c.049-.036.094-.08.148-.105l.467-.204c.045-.017.105.005.158.01-.027.046-.042.116-.082.135-.172.083-.349.154-.527.221-.043.016-.098.002-.147.002l-.016-.059z"/><path id="AN" d="M20.383 16.158c-.052.027-.091.061-.132.065l-.552.033c-.033.001-.067-.034-.101-.052.018-.03.034-.084.054-.085l.683-.022c.009 0 .019.023.049.061z"/><path id="AO" d="M32.157 14.9l.402.615c-.243-.016-.475-.376-.402-.615z"/><path id="AP" d="M30.195 49.557c-.206.016-.382-.134-.366-.311.155-.011.359.163.366.311z"/><path id="AQ" d="M21.259 4.343c-.057.039-.109.09-.172.115l-1.165.455c-1.217.495-2.396 1.064-3.489 1.8-.012.008-.025.022-.038.023-.045.005-.091.006-.137.009.015-.043.017-.102.047-.125l.469-.327a19.26 19.26 0 0 1 3.973-1.871l.312-.112c.056-.017.118-.015.178-.022l.022.054z"/><path id="AR" d="M46.875 40.711a1.76 1.76 0 0 0-.609-.716l.074-.483c.004-.032-.005-.064-.028-.088 0 0-.097-.1-.289-.191-.052-.025-.11-.049-.177-.071-.182-1.738-.684-3.186-1.514-4.31 1.039-1.995 1.626-4.264 1.626-6.67 0-7.992-6.478-14.47-14.47-14.47s-14.469 6.478-14.469 14.47c0 2.406.587 4.675 1.626 6.67-.829 1.124-1.332 2.572-1.514 4.31-.067.022-.125.046-.177.071-.192.09-.291.191-.291.191-.021.024-.032.056-.026.088l.074.483a1.76 1.76 0 0 0-.609.716c-.232.497-.26 1.13-.063 1.849-.012.168-.008.341.028.498.092.397.409.614.708.621a.56.56 0 0 0 .408-.153c.02-.018.036-.039.052-.06a.68.68 0 0 0 .612.328c.218-.015.426-.142.537-.349.118.161.31.255.505.263.312.014.648-.185.739-.596.129-.597.185-1.096.185-1.656 0-.401-.11-.804-.348-1.128-.117-.161-.268-.3-.449-.41l.061-.406c.006-.032-.004-.064-.026-.088 0 0-.097-.1-.291-.191a1.28 1.28 0 0 0-.106-.044c.124-1.167.41-2.122.853-2.893 1.944 2.865 4.886 4.996 8.33 5.891a17.87 17.87 0 0 0 .088 1.587c-.341.022-.648.068-.901.147-.2.061-.367.142-.491.257a.6.6 0 0 0-.2.444c0 .16.064.302.171.412-.024.001-.046.001-.068.003s-.044.001-.067.003c-.017-.001-.033 0-.05.001a2.51 2.51 0 0 0-.15.013 1.99 1.99 0 0 0-.163.019l-.102.017a.79.79 0 0 0-.099.02c-.013.001-.024.004-.036.007-.02.005-.02.007-.021.007-.78.184-1.293.639-1.61 1.191-.212.367-.341.775-.416 1.178v.001c-.001.007-.003.014-.003.021-.072.384-.095.762-.095 1.096 0 .022.008.046.021.064 0 0 .2.264.658.516s1.184.501 2.251.501h.003c1.471-.038 2.991-.616 4.01-1.958.012-.017.019-.035.021-.056.04-.473.05-.861.045-1.191-.011-.611-.075-1.023-.107-1.401.138-.118.224-.278.224-.465a.6.6 0 0 0-.199-.444c-.124-.115-.292-.196-.492-.257-.164-.051-.351-.089-.554-.114-.038-.338-.077-.781-.093-1.304.679.097 1.373.147 2.079.147a14.62 14.62 0 0 0 2.048-.143 15.26 15.26 0 0 1-.093 1.3 3.16 3.16 0 0 0-.554.114c-.199.061-.367.142-.491.257a.6.6 0 0 0-.199.444c0 .186.086.346.224.465-.032.378-.096.79-.107 1.401-.006.33.004.718.044 1.191.001.021.008.039.021.056 1.017 1.341 2.539 1.92 4.01 1.958h.003c1.067 0 1.792-.249 2.251-.501s.658-.516.658-.516c.013-.019.021-.042.021-.064 0-.334-.022-.712-.095-1.096 0-.007-.001-.014-.003-.021v-.001c-.075-.404-.205-.811-.416-1.178a2.44 2.44 0 0 0-1.61-1.191c-.008-.004-.015-.005-.021-.007-.013-.003-.024-.006-.036-.007a.79.79 0 0 0-.099-.02l-.102-.017c-.053-.008-.107-.015-.163-.019-.049-.006-.099-.01-.15-.013-.017-.001-.033-.003-.05-.001-.022-.001-.044-.003-.067-.003s-.046-.001-.068-.003c.107-.11.171-.252.171-.412a.6.6 0 0 0-.2-.444c-.124-.115-.292-.196-.491-.257-.253-.079-.561-.125-.902-.147a17.69 17.69 0 0 0 .088-1.581 14.41 14.41 0 0 0 4.744-2.205c1.414-1.005 2.641-2.255 3.615-3.693.443.771.729 1.725.853 2.893-.038.014-.074.029-.106.044-.193.09-.291.191-.291.191-.022.024-.032.056-.028.088l.063.408c-.181.109-.333.248-.449.409-.238.324-.348.728-.348 1.128 0 .559.056 1.059.185 1.656.089.41.427.609.739.596.195-.008.385-.102.504-.262.114.206.32.333.538.348a.68.68 0 0 0 .612-.33c.015.022.032.043.051.061a.56.56 0 0 0 .406.153c.3-.007.618-.224.708-.621.036-.157.042-.33.029-.498.197-.719.17-1.352-.063-1.849zM22.363 19.355c-1.301.63-3.818 5.421-4.231 6.979.262-3.247 1.828-6.107 4.132-8.142 2.251-2.09 5.272-3.386 8.57-3.364-1.608.273-6.659 2.336-7.406 3.562 1.422-1.415 6.058-2.901 7.449-2.688-2.524.782-6.204 2.339-6.901 3.324 2.102-1.505 5.319-2.347 6.82-2.341-3.105 1.027-5.736 2.166-6.319 3.021 1.663-1.201 4.566-1.928 6.41-2.038-3.111 1.135-5.358 1.952-5.864 2.753 2.222-1.521 4.891-1.923 5.654-1.791l-.945.345c-1.725.317-3.343 1.101-4.662 2.273-1.441 1.283-2.44 2.965-2.876 4.81l-.213.449c-.068-.764.568-3.353 2.293-5.408-.853.429-1.87 2.568-3.282 5.532.27-1.804 1.254-4.598 2.607-6.131-.913.501-2.289 2.99-3.592 5.958.124-1.478 1.249-4.569 2.95-6.507-1.053.601-2.941 4.086-3.946 6.502-.096-1.386 1.802-5.818 3.352-7.096zm7.047 22.066a12.38 12.38 0 0 1-1.554-.321 12.59 12.59 0 0 1-2.888-1.198c-1.946-1.044-3.617-2.596-4.767-4.548a11.49 11.49 0 0 1-.718-1.426c-.138-.327-.262-.664-.372-1.007.12.225.309.519.548.853.262.363.581.776.938 1.206 1.373 1.66 3.263 3.558 4.203 3.764-1.173-.577-2.795-2.436-3.84-4.04-.316-.483-.577-.942-.758-1.337h-.001c-.138-.299-.228-.561-.262-.767a25.13 25.13 0 0 0 .469.634 35.06 35.06 0 0 0 .963 1.211c1.407 1.693 3.029 3.332 3.873 3.58-1.369-.978-2.61-2.497-3.432-3.826-.3-.488-.547-.952-.721-1.352a5.42 5.42 0 0 1-.185-.486l.316.417c.326.428.65.842.967 1.231 1.46 1.795 2.778 3.114 3.556 3.328-1.133-.803-2.229-2.215-3.023-3.57-.278-.472-.518-.936-.711-1.365-.068-.152-.131-.299-.186-.441l.309.387 1.006 1.251c1.375 1.686 2.413 2.826 3.125 2.996-1.252-.938-2.184-2.143-2.762-3.132-.274-.469-.469-.889-.582-1.21a9.26 9.26 0 0 0 .697 1.169 9.52 9.52 0 0 0 4.885 3.603 9.62 9.62 0 0 0 1.528.359c.107.017.216.032.326.044a9.82 9.82 0 0 0 1.144.067 7.51 7.51 0 0 0 .308-.006c.23-.007.46-.024.69-.047l.451.052.013.043v.001c-.501.177-1.651.313-3.022.184a11.45 11.45 0 0 1-1.553-.256v-.001c-.412-.099-.828-.224-1.24-.383.223.22.632.396 1.198.548.427.114.945.216 1.539.309.921.145 2.031.276 3.279.42v.001c.007.028.012.054.018.081-.975.146-2.215.196-3.434.099a12.89 12.89 0 0 1-1.555-.216c-.509-.104-.989-.242-1.414-.417.252.231.729.441 1.373.628.438.127.954.242 1.529.348 1.059.195 2.322.352 3.667.472a1.39 1.39 0 0 1 .011.075c-.491.093-1.135.146-1.857.146-.598 0-1.251-.036-1.916-.117v-.001c-.515-.061-1.035-.15-1.544-.27-.555-.128-1.096-.294-1.596-.498.278.246.843.479 1.569.689a20.15 20.15 0 0 0 1.53.364c1.266.252 2.696.442 3.919.541.006.051.01.103.014.153-.901.181-2.482.16-4.005-.042-.533-.07-1.06-.163-1.547-.276-.76-.177-1.423-.405-1.87-.68.299.305.991.594 1.855.845a20.57 20.57 0 0 0 1.542.377c1.479.305 3.078.504 4.078.527l.004.11c-1.393.281-2.784.313-4.124.125zm4.95-4.691a8.71 8.71 0 0 1-1.528.369 8.92 8.92 0 0 1-1.344.1c-.466 0-.925-.036-1.372-.104a8.82 8.82 0 0 1-1.526-.373c-1.863-.63-3.452-1.856-4.543-3.448-.296-.43-.555-.888-.774-1.368-.515-1.134-.801-2.396-.801-3.723a9.03 9.03 0 0 1 .102-1.352 8.99 8.99 0 0 1 2.461-4.946l.125-.127c.09-.09.182-.177.277-.262a9.52 9.52 0 0 1 .312-.268c.113-.092.228-.182.345-.27a6.27 6.27 0 0 1 .302-.216 4.31 4.31 0 0 1 .154-.103 3.68 3.68 0 0 1 .156-.1 4.03 4.03 0 0 1 .165-.102c.056-.033.111-.067.168-.097.113-.064.227-.127.342-.185l.175-.088c.007-.003.014-.007.022-.011a8.42 8.42 0 0 1 .512-.227 8.91 8.91 0 0 1 .366-.139 8.94 8.94 0 0 1 .373-.124c.125-.039.252-.075.38-.109l.192-.047c.064-.017.128-.031.193-.043a2.34 2.34 0 0 1 .164-.035c.017-.003.033-.005.05-.01l.166-.029.05-.008c.031-.004.061-.01.09-.012.011-.003.022-.006.033-.006l.232-.032a6.69 6.69 0 0 1 .235-.025l.113-.011.195-.014c.086-.005.174-.01.262-.012a9.22 9.22 0 0 1 .648.001 1.14 1.14 0 0 1 .099.004c.018 0 .035.001.053.003.065.003.131.007.195.012l.161.014c.097.008.195.02.294.032l.156.022a8.78 8.78 0 0 1 .469.081c.064.011.128.025.191.04s.127.028.189.044a5.68 5.68 0 0 1 .374.1c.063.018.124.038.185.057a2.83 2.83 0 0 1 .184.06c.245.081.485.174.719.278l.349.163a6.56 6.56 0 0 1 .341.175c.113.061.224.125.334.191l.1.061c.039.024.077.047.114.072.079.05.159.103.238.157.046.031.093.063.139.096a7.03 7.03 0 0 1 .164.12c.058.043.115.088.173.132a7.53 7.53 0 0 1 .326.269 6.55 6.55 0 0 1 .147.131l.146.134.134.128a5.93 5.93 0 0 1 .16.161l.118.125a9 9 0 0 1 2.319 4.81c.065.437.099.883.099 1.336 0 1.327-.287 2.589-.801 3.723-.218.48-.477.938-.774 1.368-1.095 1.6-2.695 2.828-4.569 3.456zm9.206-2.737a12.22 12.22 0 0 1-.776 1.376c-.348.537-.742 1.052-1.181 1.542.239-.385.547-1.055.861-1.853a30.86 30.86 0 0 0 .55-1.519c.633-1.907 1.124-3.994.87-4.81.072 1.121-.48 2.977-1.178 4.595a17.43 17.43 0 0 1-.672 1.394c-.406.754-.812 1.347-1.142 1.619.253-.563.515-1.199.764-1.861.184-.483.36-.978.523-1.468.601-1.811 1.013-3.555.835-4.298-.135 1.37-.607 2.845-1.174 4.113a15.81 15.81 0 0 1-.691 1.368c-.337.589-.672 1.075-.967 1.405l.64-1.569c.196-.5.376-.985.534-1.446.629-1.807.963-3.268.786-3.957-.11 1.17-.591 2.532-1.199 3.769-.234.476-.484.932-.742 1.352-.284.466-.573.886-.849 1.238l.529-1.368c.197-.511.343-1.007.543-1.441 1.559-3.385.364-8.47-1.308-11.04 1.224 1.458 2.734 4.154 3.005 6.262.232-1.052-.771-3.839-2.197-6.901 1.07 1.119 2.714 4.131 3.065 6.787.252-1.229-1.18-5.102-2.379-7.553 1.148.888 3.313 5.426 3.25 7.506.398-1.44-1.622-6.702-2.557-8.101 2.355 2.453 3.519 5.644 3.532 8.832a12.95 12.95 0 0 1-1.273 6.027zm-16.948-3.781c-.034.031-.03.087 0 .119.124.13.293.181.462.228.21.059.405.134.592.248.174.106.326.239.486.364.166.129.34.252.478.411.016.018.041-.002.038-.022-.026-.144-.063-.275-.112-.396.203.056.416.087.624.096.521.023 1.058-.047 1.473-.387.885-.725.776-2.16.457-3.136-.333-1.017-1.154-1.853-2.278-1.847-1.037.006-1.916.684-2.319 1.616-.356.824-.373 1.948.233 2.619-.048.021-.093.049-.134.086zm1.861-3.752c.863-.172 1.602.309 1.975 1.072.199.407.292.873.327 1.322s.014.928-.228 1.326c-.269.442-.725.579-1.218.606-.336.018-.711.012-1.055-.071a1.74 1.74 0 0 0-.376-.306c-.202-.125-.51-.288-.797-.322-.922-1.217-.164-3.318 1.371-3.624zm-.869-2.057c-.058-.246.099-.491.28-.667.3-.293.691-.491 1.104-.566.374-.068.819-.117 1.115.167.165.159.266.374.326.596.064.236.081.503-.044.713-.116.198-.34.313-.566.352s-.458.013-.686-.014l-.641-.075c-.181-.021-.365-.043-.532-.118s-.315-.212-.356-.389zm4.778 6.47c.408.34.936.41 1.448.387a2.72 2.72 0 0 0 .614-.096c-.048.121-.084.253-.11.396-.004.02.021.041.037.022.136-.159.307-.282.47-.411.158-.125.307-.258.478-.364.184-.114.376-.189.582-.248.166-.047.332-.098.454-.228.03-.032.034-.088 0-.119-.04-.037-.085-.065-.131-.086.596-.671.579-1.796.229-2.619-.396-.932-1.261-1.61-2.28-1.616-1.105-.007-1.912.83-2.24 1.847-.314.976-.422 2.411.449 3.136zm-.12-2.019c.035-.449.126-.915.322-1.322.367-.762 1.094-1.244 1.942-1.072 1.509.306 2.254 2.407 1.348 3.624-.283.035-.585.197-.784.322a1.72 1.72 0 0 0-.37.306c-.338.084-.706.09-1.037.072-.484-.027-.933-.164-1.197-.606-.238-.397-.259-.874-.224-1.326zm.315-4.207c-.124-.211-.108-.477-.044-.713.06-.221.16-.437.326-.596.296-.284.741-.235 1.115-.167.413.075.803.273 1.104.566.18.176.337.421.279.667-.042.177-.19.314-.356.389s-.35.097-.532.118l-.641.075c-.228.027-.459.053-.685.014s-.45-.155-.566-.352zm-1.616 9.113c.166.006.874.006 1.04 0a5.02 5.02 0 0 0 .248-.015l.115-.011.062-.007.026-.003c.048-.002.084-.012.115-.017l.131-.023a5.34 5.34 0 0 0 .235-.049 5.4 5.4 0 0 0 .479-.135 5.35 5.35 0 0 0 .234-.084l.108-.042.033-.014.052-.022c.152-.067.301-.14.447-.219s.283-.162.418-.253a5.42 5.42 0 0 0 .203-.143l.05-.037.033-.026.083-.066a6.1 6.1 0 0 0 .42-.37c.095-.093.187-.195.287-.286-.034-.025-.053-.039-.071-.054-.006-.004-.039-.026-.014-.012s-.006-.004-.011-.008-.021-.014-.031-.021c-.028-.019-.056-.035-.083-.056-.002-.001-.014-.011-.017-.013-.012-.009-.024-.017-.035-.027s-.029-.029-.043-.043c-.034-.033-.024-.087.014-.111.107-.068.223-.067.345-.05a.59.59 0 0 1 .209.062c.06.033.116.078.169.12a.89.89 0 0 1 .232.271c.056.107.116.256.06.372l-.001.002c-.022.061-.089.096-.15.061.026.016-.023-.008-.028-.011-.016-.009-.03-.024-.044-.036s-.037-.031-.055-.048a.41.41 0 0 1-.046-.053c.012.016.016.021.001.002a1.07 1.07 0 0 0-.046-.052l-.074-.077c-.066.108-.15.206-.231.303a3.96 3.96 0 0 1-.355.361c-.259.238-.551.446-.854.626-.591.351-1.254.592-1.933.7a15.59 15.59 0 0 1-2.416 0c-.679-.108-1.342-.349-1.933-.7-.302-.18-.594-.388-.854-.626a3.96 3.96 0 0 1-.355-.361c-.081-.096-.165-.195-.231-.303-.025.025-.049.051-.074.077a.97.97 0 0 0-.046.052c-.015.018-.011.014.001-.002-.016.021-.028.036-.046.053s-.036.032-.055.048-.028.027-.044.036c-.005.003-.054.027-.028.011-.06.035-.128 0-.15-.061l-.001-.002c-.056-.116.004-.266.06-.372s.14-.197.232-.271a1.19 1.19 0 0 1 .169-.12.59.59 0 0 1 .209-.062c.122-.016.238-.018.345.05.038.024.048.078.014.111-.015.014-.028.03-.043.043s-.023.018-.035.027c-.002.002-.015.012-.016.013-.027.021-.055.037-.083.056-.011.007-.021.014-.031.021s-.037.022-.011.008-.009.007-.014.012c-.018.015-.037.029-.056.042.085.102.178.204.272.297a6.1 6.1 0 0 0 .42.37l.083.066c0 0 .027.021.033.026l.05.037a5.42 5.42 0 0 0 .203.143 5.41 5.41 0 0 0 .418.253c.146.079.295.152.447.219l.041.018.044.018.107.042c.078.03.156.058.234.084a5.41 5.41 0 0 0 .479.135 5.34 5.34 0 0 0 .235.049l.131.023c.031.005.067.015.1.016.024.002.032.003.041.004l.062.007.115.011a5.02 5.02 0 0 0 .248.015zm2.039 1.365c-.043.047-.109.061-.166.081s-.114.035-.172.051a3.42 3.42 0 0 1-.348.084c-.428.073-.871.107-1.303.046-.193-.027-.38-.074-.562-.142-.093-.034-.184-.078-.268-.129-.043-.026-.09-.053-.127-.087s-.061-.064-.098-.094.003-.089.044-.076c.053.016.105.015.159.026s.105.024.158.036a6.8 6.8 0 0 0 .31.06c.359.061.752.072 1.125.054.209-.01.418-.035.628-.041l.302-.01c.094-.003.22-.022.305.025.043.024.046.081.015.115zm-3.791-5.018c.338.071.681-.064.888-.34.111-.148.154-.326.169-.507.014-.171 0-.357-.054-.52a.78.78 0 0 0-.321-.427c-.154-.097-.36-.131-.538-.114a.92.92 0 0 0-.739.529c-.127.226-.164.503-.087.752a.93.93 0 0 0 .682.626zm.293-1.026a.68.68 0 0 1 .118-.229c.021.011.025.015.03.018.009.01.017.017.024.025.001.002.011.016.013.019.008.016.009.018.01.02a.22.22 0 0 1 .012.05c.005.043-.001.101-.014.148-.019.072-.084.174-.167.161-.034-.005-.045-.038-.047-.072-.003-.049.006-.094.02-.141zm-.59-.321c.014-.018.03-.035.046-.051.039-.024.079-.043.122-.056s.104-.022.152-.004.085.072.107.12c.051.109.002.283-.044.387-.052.114-.144.234-.28.24-.15.006-.229-.108-.252-.24.01-.142.062-.283.15-.395zm4.5 1.347c.338.071.681-.064.888-.34.111-.148.154-.326.169-.507.014-.171.001-.357-.054-.52a.78.78 0 0 0-.321-.427c-.153-.097-.36-.131-.538-.114-.314.03-.611.24-.739.529-.127.226-.164.503-.087.752a.93.93 0 0 0 .682.626zm.293-1.026a.68.68 0 0 1 .118-.229c.021.011.025.015.03.018.009.01.017.017.024.025.001.002.011.016.013.019.008.016.009.018.01.02a.22.22 0 0 1 .013.05c.005.043-.001.101-.014.148-.019.072-.084.174-.167.161-.034-.005-.045-.038-.047-.072-.002-.049.006-.094.02-.141zm-.59-.321c.014-.018.03-.035.046-.051a.49.49 0 0 1 .122-.056c.047-.014.104-.022.151-.004s.084.072.107.12c.051.109.002.283-.044.387-.052.114-.144.234-.28.24-.15.006-.229-.108-.252-.24a.72.72 0 0 1 .15-.395zm-6.503 1.453c-.034.031-.03.087 0 .119.124.13.293.181.462.228.21.059.405.134.592.248.174.106.326.239.486.364.166.129.34.252.478.411.016.018.041-.002.038-.022-.026-.144-.063-.275-.112-.396.203.056.416.087.624.096.521.023 1.058-.047 1.473-.387.885-.725.776-2.16.457-3.136-.333-1.017-1.154-1.853-2.278-1.847-1.037.006-1.916.684-2.319 1.616-.356.824-.373 1.948.233 2.619-.048.021-.093.049-.134.086zm1.861-3.752c.863-.172 1.602.309 1.975 1.072.199.407.292.873.327 1.322s.014.928-.228 1.326c-.269.442-.725.579-1.218.606-.336.018-.711.012-1.055-.071a1.74 1.74 0 0 0-.376-.306c-.202-.125-.51-.288-.797-.322-.922-1.217-.164-3.318 1.371-3.624zm-.869-2.057c-.058-.246.099-.491.28-.667.3-.293.691-.491 1.104-.566.374-.068.819-.117 1.115.167.165.159.266.374.326.596.064.236.081.503-.044.713-.116.198-.34.313-.566.352s-.458.013-.686-.014l-.641-.075c-.181-.021-.365-.043-.532-.118s-.315-.212-.356-.389zm4.778 6.47c.408.34.936.41 1.448.387a2.72 2.72 0 0 0 .614-.096c-.048.121-.084.253-.11.396-.004.02.021.041.037.022.136-.159.307-.282.47-.411.158-.125.307-.258.478-.364.184-.114.376-.189.582-.248.166-.047.332-.098.454-.228.03-.032.034-.088 0-.119-.04-.037-.085-.065-.131-.086.596-.671.579-1.796.229-2.619-.396-.932-1.261-1.61-2.28-1.616-1.105-.007-1.912.83-2.24 1.847-.314.976-.422 2.411.449 3.136zm-.12-2.019c.035-.449.126-.915.322-1.322.367-.762 1.094-1.244 1.942-1.072 1.509.306 2.254 2.407 1.348 3.624-.283.035-.585.197-.784.322a1.72 1.72 0 0 0-.37.306c-.338.084-.706.09-1.037.072-.484-.027-.933-.164-1.197-.606-.238-.397-.259-.874-.224-1.326zm.315-4.207c-.124-.211-.108-.477-.044-.713.06-.221.16-.437.326-.596.296-.284.741-.235 1.115-.167.413.075.803.273 1.104.566.18.176.337.421.279.667-.042.177-.19.314-.356.389s-.35.097-.532.118l-.641.075c-.228.027-.459.053-.685.014s-.45-.155-.566-.352zm-1.616 9.113c.166.006.874.006 1.04 0a5.02 5.02 0 0 0 .248-.015l.115-.011.062-.007.026-.003c.048-.002.084-.012.115-.017l.131-.023a5.34 5.34 0 0 0 .235-.049 5.4 5.4 0 0 0 .479-.135 5.35 5.35 0 0 0 .234-.084l.108-.042.033-.014.052-.022c.152-.067.301-.14.447-.219s.283-.162.418-.253a5.42 5.42 0 0 0 .203-.143l.05-.037.033-.026.083-.066a6.1 6.1 0 0 0 .42-.37c.095-.093.187-.195.287-.286-.034-.025-.053-.039-.071-.054-.006-.004-.039-.026-.014-.012s-.006-.004-.011-.008-.021-.014-.031-.021c-.028-.019-.056-.035-.083-.056-.002-.001-.014-.011-.017-.013-.012-.009-.024-.017-.035-.027s-.029-.029-.043-.043c-.034-.033-.024-.087.014-.111.107-.068.223-.067.345-.05a.59.59 0 0 1 .209.062c.06.033.116.078.169.12a.89.89 0 0 1 .232.271c.056.107.116.256.06.372l-.001.002c-.022.061-.089.096-.15.061.026.016-.023-.008-.028-.011-.016-.009-.03-.024-.044-.036s-.037-.031-.055-.048a.41.41 0 0 1-.046-.053c.012.016.016.021.001.002a1.07 1.07 0 0 0-.046-.052l-.074-.077c-.066.108-.15.206-.231.303a3.96 3.96 0 0 1-.355.361c-.259.238-.551.446-.854.626-.591.351-1.254.592-1.933.7a15.59 15.59 0 0 1-2.416 0c-.679-.108-1.342-.349-1.933-.7-.302-.18-.594-.388-.854-.626a3.96 3.96 0 0 1-.355-.361c-.081-.096-.165-.195-.231-.303-.025.025-.049.051-.074.077a.97.97 0 0 0-.046.052c-.015.018-.011.014.001-.002-.016.021-.028.036-.046.053s-.036.032-.055.048-.028.027-.044.036c-.005.003-.054.027-.028.011-.06.035-.128 0-.15-.061l-.001-.002c-.056-.116.004-.266.06-.372s.14-.197.232-.271a1.19 1.19 0 0 1 .169-.12.59.59 0 0 1 .209-.062c.122-.016.238-.018.345.05.038.024.048.078.014.111-.015.014-.028.03-.043.043s-.023.018-.035.027c-.002.002-.015.012-.016.013-.027.021-.055.037-.083.056-.011.007-.021.014-.031.021s-.037.022-.011.008-.009.007-.014.012c-.018.015-.037.029-.056.042.085.102.178.204.272.297a6.1 6.1 0 0 0 .42.37l.083.066c0 0 .027.021.033.026l.05.037a5.42 5.42 0 0 0 .203.143 5.41 5.41 0 0 0 .418.253c.146.079.295.152.447.219l.041.018.044.018.107.042c.078.03.156.058.234.084a5.41 5.41 0 0 0 .479.135 5.34 5.34 0 0 0 .235.049l.131.023c.031.005.067.015.1.016.024.002.032.003.041.004l.062.007.115.011a5.02 5.02 0 0 0 .248.015zm2.039 1.365c-.043.047-.109.061-.166.081s-.114.035-.172.051a3.42 3.42 0 0 1-.348.084c-.428.073-.871.107-1.303.046-.193-.027-.38-.074-.562-.142-.093-.034-.184-.078-.268-.129-.043-.026-.09-.053-.127-.087s-.061-.064-.098-.094.003-.089.044-.076c.053.016.105.015.159.026s.105.024.158.036a6.8 6.8 0 0 0 .31.06c.359.061.752.072 1.125.054.209-.01.418-.035.628-.041l.302-.01c.094-.003.22-.022.305.025.043.024.046.081.015.115z"/></defs></svg>