<svg width="33" height="34" viewBox="0 0 33 34" fill="none" xmlns="http://www.w3.org/2000/svg">
<g clip-path="url(#clip0_2933_117494)" filter="url(#filter0_d_2933_117494)">
<circle cx="16" cy="16" r="14" fill="#1ED760"/>
<path d="M22.3643 21.623C22.1252 22.0025 21.6149 22.1087 21.2163 21.881C18.075 20.0593 14.1364 19.6494 9.48023 20.6514C9.03375 20.7425 8.58728 20.4844 8.4916 20.0593C8.39593 19.6343 8.667 19.2092 9.11348 19.1181C14.2002 18.0099 18.5693 18.4805 22.0773 20.5299C22.476 20.7576 22.6035 21.2434 22.3643 21.623ZM23.9908 18.1617C23.6878 18.6323 23.05 18.769 22.5557 18.4957C18.9679 16.3856 13.4985 15.7783 9.25699 17.008C8.6989 17.1598 8.12485 16.8714 7.96539 16.3552C7.80594 15.8239 8.1089 15.2774 8.667 15.1256C13.5145 13.7289 19.542 14.3969 23.6719 16.8106C24.1343 17.0839 24.2938 17.6911 23.9908 18.1617ZM24.1343 14.5487C19.829 12.1197 12.7332 11.892 8.61917 13.0761C7.96539 13.2735 7.26378 12.9243 7.05649 12.2867C6.8492 11.6643 7.23189 10.9964 7.88567 10.799C12.6056 9.43274 20.4509 9.70599 25.394 12.4993C25.984 12.8332 26.1754 13.5619 25.8246 14.1236C25.4897 14.7005 24.7243 14.8978 24.1343 14.5487Z" fill="white"/>
</g>
<defs>
<filter id="filter0_d_2933_117494" x="0" y="0" width="33" height="34" filterUnits="userSpaceOnUse" color-interpolation-filters="sRGB">
<feFlood flood-opacity="0" result="BackgroundImageFix"/>
<feColorMatrix in="SourceAlpha" type="matrix" values="0 0 0 0 0 0 0 0 0 0 0 0 0 0 0 0 0 0 127 0" result="hardAlpha"/>
<feOffset dx="1" dy="2"/>
<feColorMatrix type="matrix" values="0 0 0 0 0.0627451 0 0 0 0 0.0627451 0 0 0 0 0.0627451 0 0 0 1 0"/>
<feBlend mode="normal" in2="BackgroundImageFix" result="effect1_dropShadow_2933_117494"/>
<feBlend mode="normal" in="SourceGraphic" in2="effect1_dropShadow_2933_117494" result="shape"/>
</filter>
<clipPath id="clip0_2933_117494">
<rect width="32" height="32" fill="white"/>
</clipPath>
</defs>
</svg>
