<svg width="32" height="32" viewBox="0 0 32 32" fill="none" xmlns="http://www.w3.org/2000/svg">
<path d="M15.6154 19.7139C14.4079 19.3564 13.2019 20.2761 13.092 21.6313C12.6926 26.5565 12.9832 24.4142 11.0296 28.8794C10.4921 30.108 11.1023 31.5656 12.3099 31.9232C13.262 32.2052 14.2587 31.6904 14.6668 30.7139C16.7308 25.7766 16.5581 27.4489 17.0826 22.0559C17.1863 20.989 16.5675 19.9959 15.6154 19.7139Z" fill="#101010"/>
<path d="M23.2229 16.447C23.2229 16.447 24.065 20.8556 20.2328 22.1445C20.2328 22.1445 21.753 25.2409 19.0505 26C15.4829 27.2498 10.9831 25.2718 10.109 23.3604C9.48698 22 11.3202 21.2787 11.3202 21.2787C8.29177 19.6693 5.71665 13.3862 11.5197 12.4337C12.1208 11.1734 11.0214 4.09007 12.2652 1.98946C13.1872 0.432388 15.9217 -0.241231 16.6917 3.31926C17.0713 5.07471 16.7075 8.699 16.3483 10.1581C16.3483 10.1581 19.6437 7.91074 20.6033 11.8919C20.6033 11.8919 21.6985 11.0259 23.1408 11.9101C24.0198 12.4489 24.6118 13.4467 23.2229 16.447Z" fill="white"/>
<path fill-rule="evenodd" clip-rule="evenodd" d="M14.5591 0.524069C13.7982 0.449543 12.9929 0.962218 12.5845 1.69958C12.3133 2.1891 12.1561 3.00393 12.0775 4.01578C11.9998 5.01682 12.0015 6.1686 12.023 7.30309C12.0305 7.70137 12.0405 8.09855 12.0502 8.48578C12.0681 9.19509 12.0851 9.87105 12.0845 10.4594C12.0841 10.9155 12.0732 11.3273 12.0431 11.6693C12.0138 12.0032 11.9642 12.3005 11.8715 12.5081L11.8173 12.6295L11.694 12.6511C10.3305 12.8904 9.49706 13.4566 9.03275 14.1607C8.56729 14.8665 8.44575 15.7518 8.58295 16.6857C8.72028 17.6204 9.11518 18.5858 9.65765 19.4207C10.2006 20.2563 10.8806 20.9447 11.5737 21.3384L12.3033 21.7528L11.4818 21.8245L11.4791 21.8247C11.4766 21.825 11.4723 21.8255 11.4663 21.8262C11.4544 21.8276 11.436 21.8301 11.4123 21.8339C11.3649 21.8416 11.2968 21.8548 11.2173 21.8762C11.0558 21.9197 10.859 21.9942 10.6911 22.1169C10.5257 22.2376 10.3973 22.3976 10.3452 22.6163C10.2926 22.8369 10.308 23.1572 10.5048 23.6171C10.6917 24.054 11.0856 24.5056 11.6493 24.9186C12.2096 25.3291 12.9212 25.6892 13.7176 25.9508C15.3134 26.475 17.2181 26.5941 18.8893 25.9683C19.7282 25.6541 20.1804 25.2828 20.4099 24.9313C20.6341 24.5878 20.6637 24.2356 20.6006 23.9045C20.536 23.5656 20.3739 23.2521 20.22 23.0168C20.1441 22.9006 20.0724 22.8071 20.0203 22.743C19.9942 22.7111 19.9732 22.6867 19.959 22.6707C19.952 22.6627 19.9467 22.6569 19.9433 22.6532L19.9399 22.6495L19.6594 22.3533L20.0315 22.2195C21.7876 21.5882 22.4691 20.2038 22.7173 18.9556C22.842 18.3282 22.8558 17.7382 22.8379 17.3038C22.829 17.0871 22.8123 16.9105 22.7979 16.7889C22.7907 16.7282 22.7842 16.6813 22.7795 16.6502C22.778 16.64 22.7766 16.6315 22.7756 16.6248C22.775 16.6212 22.7745 16.6182 22.7741 16.6156L22.7727 16.6076L22.7725 16.6061L22.7578 16.5239L22.7907 16.448C23.4582 14.9066 23.6285 13.9243 23.5551 13.2797C23.4847 12.6621 23.1867 12.3249 22.8038 12.074C22.1636 11.6545 21.6134 11.6553 21.227 11.7517C21.0311 11.8006 20.8744 11.8749 20.7676 11.9363C20.7143 11.967 20.674 11.9941 20.6479 12.0128C20.6349 12.0221 20.6255 12.0293 20.6199 12.0336C20.6171 12.0358 20.6144 12.038 20.6144 12.038L20.3218 12.2853L20.2338 11.8954C20.0094 10.9001 19.6568 10.3311 19.2817 10.0158C18.9088 9.70226 18.485 9.61525 18.0702 9.64541C17.6518 9.67583 17.2526 9.8254 16.9526 9.97235C16.8039 10.0452 16.6824 10.1161 16.5987 10.1683C16.5569 10.1944 16.5247 10.2157 16.5034 10.2301C16.4927 10.2374 16.4848 10.2429 16.4798 10.2464L16.4745 10.2502L15.9562 10.628L16.1067 9.97448C16.2762 9.2381 16.4502 7.93679 16.5354 6.58896C16.621 5.23648 16.6146 3.87302 16.4382 3.00096C16.0779 1.22033 15.2861 0.595273 14.5591 0.524069ZM16.6844 9.53685C16.8216 8.75718 16.9458 7.70006 17.0139 6.62409C17.0999 5.26442 17.0985 3.83892 16.9067 2.89087C16.5201 0.97985 15.6121 0.108288 14.6025 0.00940507C13.6268 -0.0861556 12.6586 0.557605 12.1727 1.43468C11.8406 2.03416 11.6787 2.95411 11.5997 3.97271C11.5198 5.00211 11.522 6.17645 11.5435 7.31361C11.5512 7.72077 11.5613 8.12214 11.5711 8.511C11.5889 9.21458 11.6055 9.87717 11.605 10.4588C11.6046 10.909 11.5937 11.3023 11.5657 11.6206C11.5448 11.8592 11.5153 12.0399 11.4802 12.1664C10.105 12.4351 9.18283 13.041 8.64185 13.8613C8.08428 14.7069 7.89959 15.4732 8.05045 16.5C8.20117 17.5259 8.68862 18.8303 9.26483 19.7171C9.71341 20.4075 10.258 21.0163 10.8435 21.46C10.707 21.5142 10.5602 21.5881 10.4221 21.689C10.1877 21.8601 9.96939 22.1158 9.88072 22.4877C9.79253 22.8575 9.84217 23.3025 10.0693 23.8335C10.3064 24.3876 10.7769 24.9043 11.3797 25.3459C11.9858 25.79 12.7426 26.1708 13.5778 26.4451C15.2454 26.993 17.2573 27.1265 19.0467 26.4564C19.9381 26.1226 20.4935 25.7014 20.8021 25.2287C21.1159 24.7479 21.1549 24.2442 21.0703 23.8005C20.9872 23.3644 20.7852 22.984 20.612 22.7191C20.5786 22.668 20.5459 22.6207 20.5149 22.5776C22.2328 21.822 22.9294 20.3553 23.1861 19.0639C23.3218 18.3816 23.3361 17.7453 23.317 17.2809C23.3074 17.0482 23.2894 16.8573 23.2736 16.7236C23.2674 16.6712 23.2616 16.6275 23.2567 16.5934C23.9116 15.0632 24.1197 13.9945 24.0311 13.2167C23.938 12.3996 23.5226 11.9402 23.0529 11.6324C22.294 11.1352 21.6134 11.1249 21.1188 11.2483C20.9157 11.2989 20.7459 11.3716 20.6162 11.4396C20.372 10.5591 20.0102 9.97277 19.5767 9.60833C19.0885 9.19781 18.5387 9.09339 18.0379 9.1298C17.5408 9.16595 17.0827 9.34094 16.7542 9.5019C16.7303 9.51361 16.707 9.52528 16.6844 9.53685Z" fill="#101010"/>
<path d="M24.0504 13.9314C23.2455 17.6071 21.1812 20.7692 18.7948 19.2438C16.0336 17.479 19.8363 13.8182 19.8363 13.8182" fill="white"/>
<path fill-rule="evenodd" clip-rule="evenodd" d="M20.0753 14.2321L20.0735 14.2338L20.0669 14.2402C20.0609 14.2461 20.0518 14.255 20.0398 14.2669C20.0158 14.2907 19.9805 14.3263 19.9363 14.3724C19.8477 14.4647 19.7234 14.5988 19.5819 14.7648C19.2978 15.0982 18.9493 15.5544 18.6801 16.0551C18.4087 16.5598 18.2316 17.0847 18.2575 17.5624C18.2824 18.0215 18.4959 18.4668 19.075 18.8338C19.5798 19.1538 20.0496 19.2193 20.4839 19.1085C20.9255 18.9958 21.3566 18.6939 21.7608 18.23C22.5713 17.2995 23.1991 15.3931 23.567 13.7272C23.5955 13.5985 24.0504 13.5 24.0504 13.5C24.0504 13.5 24.0595 14.1115 24.0311 14.2402C23.6539 15.9481 22.991 17.5344 22.1076 18.5486C21.6648 19.057 21.1574 19.429 20.5962 19.5722C20.0276 19.7173 19.4302 19.6205 18.8306 19.2404C18.1317 18.7975 17.8268 18.2154 17.7928 17.5889C17.7599 16.981 18.0702 16.5248 18.2726 15.8242C18.5639 15.2824 18.9357 14.7974 19.2317 14.4501C19.3802 14.2758 19.5109 14.1348 19.6049 14.0369C19.6519 13.988 19.6897 13.9498 19.7161 13.9236C19.7293 13.9105 19.7396 13.9004 19.7467 13.8934L19.755 13.8854L19.7573 13.8832C19.7573 13.8832 19.7584 13.8822 19.9168 14.0571L19.7573 13.8832C19.8515 13.7933 19.9997 13.7978 20.0872 13.8944C20.1747 13.9911 20.1693 14.1423 20.0753 14.2321Z" fill="#101010"/>
<path d="M20.4245 11.6364C21.1844 14.3169 19.0079 17.4926 15.728 16.8037C12.448 16.1145 16.1643 11.6559 16.1643 11.6559" fill="white"/>
<path fill-rule="evenodd" clip-rule="evenodd" d="M20.1365 10.9171C20.2658 10.8812 20.3966 10.9694 20.4287 11.1142C20.7973 12.7757 20.4352 14.5353 19.5786 15.7782C18.7166 17.029 17.346 17.7633 15.728 17.3289C15.317 17.2186 14.9976 17.0309 14.7655 16.7724C14.5322 16.5125 14.4008 16.1963 14.3446 15.8562C14.2347 15.1901 14.4111 14.4225 14.6649 13.7272C14.9219 13.0232 15.2743 12.3506 15.5598 11.8573C15.703 11.6098 15.8305 11.4056 15.9223 11.2629C15.9683 11.1915 16.0054 11.1355 16.0312 11.097C16.0441 11.0777 16.0542 11.0629 16.0611 11.0527L16.0691 11.041L16.0713 11.0378L16.0721 11.0366C16.0721 11.0366 16.0723 11.0365 16.2627 11.2022L16.0721 11.0366C16.1539 10.9189 16.3055 10.8974 16.4107 10.989C16.5158 11.0805 16.5348 11.2502 16.4531 11.3679M16.4531 11.3679L16.4512 11.3708L16.4443 11.3808C16.4382 11.3898 16.429 11.4034 16.4169 11.4213C16.3928 11.4572 16.3576 11.5105 16.3136 11.5788C16.2256 11.7155 16.1028 11.9123 15.9646 12.151C15.6873 12.6302 15.3525 13.2712 15.1114 13.9316C14.8672 14.6007 14.7348 15.2484 14.819 15.758C14.8599 16.0057 14.9512 16.2174 15.1057 16.3894C15.2613 16.5627 15.4946 16.7108 15.8404 16.8037C17.2497 17.182 18.4349 16.5537 19.1967 15.4482C19.9639 14.335 20.2934 12.7447 19.9606 11.2444C19.9285 11.0996 20.0072 10.9531 20.1365 10.9171" fill="#101010"/>
<path d="M11.6032 12.3887C15.0715 12.0512 17.4214 15.1969 17.0567 17.2576C16.6919 19.3181 14.3819 19.9997 11.5287 16.0236" fill="white"/>
<path fill-rule="evenodd" clip-rule="evenodd" d="M15.4977 14.2188C14.6415 13.3326 13.3973 12.5987 11.8715 12.7483C11.4802 12.7483 11.2072 12.7817 11.196 12.6511C11.1849 12.5206 11.6064 12.2973 11.7281 12.2853C13.3946 12.1219 14.8657 12.9051 15.8051 13.8773C16.7357 14.8403 17.242 16.1235 17.0557 17.184C16.9645 17.7032 16.7485 18.1526 16.4167 18.4645C16.0823 18.7789 15.6443 18.9401 15.1384 18.9042C14.14 18.8333 12.9001 18.0015 11.5741 16.1395C11.5 16.0354 11.5186 15.8864 11.6157 15.8069C11.7129 15.7274 11.8518 15.7473 11.9259 15.8515C13.2262 17.6774 14.3624 18.3734 15.1676 18.4306C15.5635 18.4587 15.8841 18.334 16.1249 18.1076C16.3683 17.8788 16.544 17.5325 16.6207 17.0961C16.7701 16.2453 16.3628 15.1141 15.4977 14.2188Z" fill="#101010"/>
</svg>
