<svg width="32" height="32" viewBox="0 0 32 32" fill="none" xmlns="http://www.w3.org/2000/svg">
<path fill-rule="evenodd" clip-rule="evenodd" d="M16 1.33334C7.89986 1.33334 1.33337 7.89983 1.33337 16C1.33337 24.1002 7.89986 30.6667 16 30.6667C24.1002 30.6667 30.6667 24.1002 30.6667 16C30.6667 7.89983 24.1002 1.33334 16 1.33334ZM20.9428 11.0572C21.4635 11.5779 21.4635 12.4221 20.9428 12.9428L17.8857 16L20.9428 19.0572C21.4635 19.5779 21.4635 20.4221 20.9428 20.9428C20.4221 21.4635 19.5779 21.4635 19.0572 20.9428L16 17.8856L12.9428 20.9428C12.4222 21.4635 11.5779 21.4635 11.0572 20.9428C10.5365 20.4221 10.5365 19.5779 11.0572 19.0572L14.1144 16L11.0572 12.9428C10.5365 12.4221 10.5365 11.5779 11.0572 11.0572C11.5779 10.5365 12.4222 10.5365 12.9428 11.0572L16 14.1144L19.0572 11.0572C19.5779 10.5365 20.4221 10.5365 20.9428 11.0572Z" fill="white"/>
</svg>
