<svg width="11" height="11" viewBox="0 0 11 11" fill="none" xmlns="http://www.w3.org/2000/svg">
<path d="M5.5 0.5C2.7365 0.5 0.5 2.73625 0.5 5.5C0.5 8.26346 2.73625 10.5 5.5 10.5C8.2635 10.5 10.5 8.26375 10.5 5.5C10.5 2.73654 8.26375 0.5 5.5 0.5ZM6.01346 7.48479C6.01346 7.64275 5.78311 7.80068 5.5001 7.80068C5.20393 7.80068 4.99334 7.64275 4.99334 7.48479V4.97723C4.99334 4.79295 5.20395 4.66787 5.5001 4.66787C5.78311 4.66787 6.01346 4.79295 6.01346 4.97723V7.48479ZM5.50012 4.06242C5.19736 4.06242 4.96045 3.83865 4.96045 3.58854C4.96045 3.33844 5.19738 3.12125 5.50012 3.12125C5.79629 3.12125 6.03324 3.33844 6.03324 3.58854C6.03324 3.83865 5.79627 4.06242 5.50012 4.06242Z" fill="#6E7D91"/>
</svg>
